<svg width="1440" height="201" viewBox="0 0 1440 201" fill="none" xmlns="http://www.w3.org/2000/svg">
<g clip-path="url(#clip0_125_1622)">
<rect width="1440" height="201" fill="white"/>
<g filter="url(#filter0_d_125_1622)">
<path d="M3.48852 280.255L1448.98 256.287L1446.08 150.845C1443.45 55.428 481.006 115.543 0.111393 157.527L3.48852 280.255Z" fill="#DDD7FD"/>
<path d="M1392.55 229.667C1390.57 231.544 1388.47 233.359 1386.24 235.093C1366.85 237.399 1348.86 239.891 1332.38 242.425C1327.62 243.156 1322.98 243.891 1318.48 244.629L1318.58 244.403C1317.08 236.19 1318.75 227.843 1323.42 220.242C1323.71 219.776 1324.01 219.309 1324.31 218.849C1327.38 214.207 1331.55 209.966 1336.64 206.309C1344.38 200.78 1354.06 196.64 1363.97 192.751C1382.53 185.475 1401.87 179.049 1410.75 165.939C1414.45 176.856 1414.73 188.207 1411.59 199.209C1408.44 210.211 1401.95 220.603 1392.55 229.667V229.667Z" fill="#011487"/>
<path d="M1291.9 194.719C1300.6 188.571 1307.98 181.57 1313.83 173.934C1319.65 166.336 1323.93 158.198 1326.53 149.759C1329.16 141.195 1329.96 132.402 1328.9 123.671C1326.72 105.89 1317.17 88.9498 1301.46 74.9453C1300.5 74.0935 1299.51 73.2548 1298.51 72.4292C1297.39 71.5061 1295.52 72.856 1296.63 73.7726C1312.66 87.0735 1322.8 103.39 1325.79 120.704C1327.96 133.935 1325.87 147.34 1319.67 159.925C1313.47 172.509 1303.33 183.95 1289.99 193.397C1288.77 194.257 1290.68 195.578 1291.9 194.719H1291.9Z" fill="#A37FFF"/>
<path d="M1302.55 76.5389C1301.47 76.26 1300.4 75.9403 1299.36 75.5813C1299.31 75.6383 1299.26 75.6963 1299.21 75.7533L1302.55 76.5389Z" fill="#A37FFF"/>
<path d="M1303.45 52.2965C1299.67 49.018 1292.49 47.5803 1287.34 49.7462C1283.89 51.1985 1281.85 53.994 1281.49 56.8141C1281.26 59.6586 1282.17 62.4908 1284.09 64.9959C1287.42 69.5963 1292.78 73.3114 1299.36 75.5814C1302.54 72.0739 1305.51 68.3878 1306.74 64.3245C1308 60.1952 1307.23 55.5749 1303.45 52.2965Z" fill="#A37FFF"/>
<path d="M1349.92 75.5776C1351.78 70.1596 1351.95 64.5222 1350.42 59.0537C1348.88 53.5852 1345.68 48.4156 1341.04 43.9011C1340.23 54.9565 1323.86 62.0894 1317.96 72.3506C1316.15 75.5609 1315.39 79.0161 1315.74 82.4602C1316.09 85.9043 1317.54 89.2489 1319.97 92.2463L1320.98 100.626C1328.09 98.1714 1334.36 94.661 1339.35 90.3367C1344.35 86.0124 1347.95 80.977 1349.92 75.5776V75.5776Z" fill="#A37FFF"/>
<path d="M1379.43 106.764C1371.31 116.247 1352.1 117.114 1340.03 124.21C1336.29 126.444 1333.31 129.241 1331.32 132.395C1329.32 135.549 1328.36 138.979 1328.5 142.43L1323.78 150.156C1331.7 150.385 1339.6 149.384 1346.91 147.223C1354.22 145.061 1360.76 141.794 1366.07 137.651C1371.38 133.509 1375.33 128.594 1377.64 123.256C1379.95 117.917 1380.56 112.287 1379.43 106.764V106.764Z" fill="#A37FFF"/>
<path d="M1303.91 127.842C1297.76 131.366 1292.8 135.801 1289.36 140.829C1285.92 145.858 1284.1 151.358 1284.03 156.938C1283.95 162.518 1285.62 168.041 1288.92 173.115C1292.22 178.189 1297.07 182.689 1303.12 186.295L1307.08 178.361C1310.5 175.889 1313.1 172.906 1314.66 169.634C1316.23 166.362 1316.72 162.883 1316.12 159.457C1314.06 148.482 1300.76 138.688 1303.91 127.842Z" fill="#A37FFF"/>
<path d="M1304.8 234.961C1301.56 241.758 1293.74 247.073 1284.8 250.555C1284.33 250.74 1283.86 250.919 1283.39 251.091C1283 251.238 1282.6 251.378 1282.2 251.513C1278.97 252.021 1275.72 252.455 1272.49 252.939C1272.48 252.939 1272.47 252.945 1272.46 252.945C1267.63 253.903 1263.08 254.836 1258.8 255.745C1256.4 256.249 1254.08 256.746 1251.85 257.237C1251.56 257.295 1251.27 257.36 1250.98 257.424C1250.6 257.508 1250.22 257.592 1249.85 257.669C1249.84 257.657 1249.83 257.651 1249.83 257.638C1249.82 257.632 1249.82 257.632 1249.83 257.626C1248.11 254.922 1246.45 252.212 1244.85 249.458C1238.56 238.864 1233.57 227.912 1229.93 216.72C1225.62 203.053 1223.9 189.119 1226.2 175.211C1227.79 165.646 1231.51 156.317 1237.23 147.566C1238.05 146.318 1238.92 145.084 1239.82 143.864C1240.09 143.48 1240.37 143.101 1240.67 142.722L1240.67 142.716C1240.7 142.678 1240.73 142.64 1240.77 142.596L1240.9 142.426L1240.9 142.42C1241.68 141.397 1242.5 140.39 1243.34 139.397C1247.55 134.395 1252.53 129.734 1258.18 125.497C1267.74 118.217 1279.55 112.577 1292.69 109.008L1292.7 109.008C1293.33 108.835 1293.97 108.674 1294.61 108.513C1294.37 108.998 1294.12 109.477 1293.89 109.962C1290.68 116.482 1288.22 123.171 1286.52 129.967C1286.39 130.489 1286.27 131.017 1286.15 131.545C1282.34 147.94 1282.89 164.69 1287.78 180.943C1287.79 180.987 1287.8 181.031 1287.81 181.075C1288.9 184.674 1290.21 188.234 1291.73 191.755C1291.77 191.855 1291.81 191.949 1291.85 192.049C1292.15 192.732 1292.46 193.415 1292.77 194.092C1293.68 196.065 1294.65 198.023 1295.7 199.966C1301.82 211.305 1310.29 223.466 1304.8 234.961Z" fill="#011487"/>
<path d="M1399.76 103.472L1412.97 96.1125C1411.79 89.9413 1408.48 84.067 1403.34 78.9995C1402.39 90.0498 1385.94 97.0864 1379.92 107.313C1378.07 110.512 1377.28 113.963 1377.58 117.409C1377.89 120.855 1379.3 124.208 1381.7 127.219L1382.6 135.605C1389.74 133.192 1396.05 129.718 1401.1 125.424C1406.15 121.129 1409.81 116.115 1411.84 110.727C1412.94 107.696 1413.49 104.581 1413.48 101.454C1406.83 102.712 1399.76 103.472 1399.76 103.472Z" fill="#CA9AFE"/>
<path d="M1368.58 177.497C1363.32 178.348 1358.72 178.843 1358.72 178.843L1366.87 174.302C1365.02 170.501 1364.02 166.674 1365.21 162.719C1359.03 166.208 1354.01 170.613 1350.51 175.621C1347.02 180.63 1345.13 186.119 1344.99 191.698C1344.85 197.277 1346.45 202.81 1349.69 207.903C1352.93 212.996 1357.73 217.525 1363.73 221.166L1367.79 213.255C1371.24 210.803 1373.87 207.836 1375.47 204.573C1377.07 201.31 1377.61 197.835 1377.05 194.405C1376.02 188.557 1371.81 183.025 1368.58 177.497Z" fill="#CA9AFE"/>
<path d="M1363.01 85.4199C1360.23 87.1362 1357.61 88.9699 1355.15 90.9108L1359.35 84.0727C1357.77 83.6448 1356.08 83.464 1354.39 83.5429C1352.7 83.6218 1351.06 83.9585 1349.57 84.5297C1346.1 85.9616 1344.03 88.745 1343.63 91.563C1343.38 94.406 1344.24 97.2434 1346.14 99.7597C1349.41 104.38 1354.73 108.126 1361.29 110.434C1364.5 106.946 1367.51 103.277 1368.8 99.2212C1370.1 95.0994 1369.39 90.4747 1365.65 87.1742C1364.88 86.5083 1364 85.9181 1363.01 85.4199V85.4199Z" fill="#CA9AFE"/>
<path d="M1428.32 160.629L1440.56 153.806C1441.57 149.939 1441.71 145.983 1440.98 142.085C1432.75 151.52 1413.53 152.275 1401.38 159.3C1397.61 161.512 1394.6 164.292 1392.57 167.434C1390.53 170.576 1389.53 174 1389.63 177.452L1384.82 185.15C1392.73 185.387 1400.62 184.414 1407.95 182.298C1415.27 180.183 1421.86 176.974 1427.26 172.893C1432.36 168.945 1436.22 164.284 1438.6 159.215C1433.16 160.107 1428.32 160.629 1428.32 160.629Z" fill="#CA9AFE"/>
<path d="M1361.34 219.612C1359 221.735 1356.52 223.779 1353.91 225.743C1354.88 225.95 1355.82 226.151 1356.75 226.352C1359.05 224.599 1361.23 222.784 1363.31 220.906C1363.66 220.592 1364.01 220.272 1364.36 219.945C1368.15 216.434 1371.56 212.731 1374.58 208.866C1380.41 201.433 1384.73 193.466 1387.43 185.193C1387.48 185.049 1387.53 184.91 1387.57 184.766C1388.3 182.492 1388.89 180.194 1389.36 177.888C1389.46 177.424 1389.55 176.953 1389.63 176.488C1389.86 175.213 1390.05 173.938 1390.2 172.663C1390.75 168.015 1390.76 163.344 1390.25 158.694C1389.37 150.742 1387.01 142.906 1383.24 135.386C1382.97 134.852 1382.7 134.318 1382.41 133.79C1382.25 133.476 1382.08 133.162 1381.91 132.848C1377.36 124.575 1371.12 116.814 1363.39 109.81C1363.11 109.552 1362.82 109.301 1362.53 109.05C1361.86 108.453 1361.17 107.863 1360.47 107.279C1360.36 107.177 1360.21 107.096 1360.04 107.042C1359.88 106.988 1359.69 106.963 1359.51 106.969C1359.32 106.975 1359.15 107.012 1358.99 107.077C1358.83 107.142 1358.69 107.232 1358.59 107.341C1358.37 107.515 1358.25 107.74 1358.24 107.973C1358.24 108.207 1358.36 108.433 1358.57 108.61C1359.13 109.081 1359.7 109.559 1360.23 110.042C1360.9 110.614 1361.54 111.198 1362.17 111.788C1375.95 124.584 1384.59 139.755 1387.17 155.711C1388.72 165.543 1387.88 175.49 1384.68 185.124H1384.67C1382.77 190.929 1380.03 196.583 1376.51 202.001C1375.8 203.081 1375.07 204.151 1374.3 205.21C1372.32 207.967 1370.14 210.649 1367.76 213.244C1365.76 215.436 1363.62 217.559 1361.34 219.612Z" fill="#3F3D56"/>
<path d="M1176.33 229.667C1174.35 231.544 1172.25 233.359 1170.02 235.093C1150.63 237.399 1132.64 239.891 1116.17 242.425C1111.4 243.156 1106.77 243.891 1102.26 244.629L1102.37 244.403C1100.86 236.19 1102.53 227.843 1107.2 220.242C1107.49 219.776 1107.79 219.309 1108.1 218.849C1111.16 214.207 1115.33 209.966 1120.42 206.309C1128.17 200.78 1137.84 196.64 1147.76 192.751C1166.31 185.475 1185.65 179.049 1194.54 165.939C1198.23 176.856 1198.51 188.207 1195.37 199.209C1192.23 210.211 1185.73 220.603 1176.33 229.667V229.667Z" fill="#011487"/>
<path d="M1075.68 194.719C1084.38 188.571 1091.76 181.57 1097.61 173.934C1103.44 166.336 1107.71 158.198 1110.31 149.759C1112.94 141.195 1113.74 132.402 1112.68 123.671C1110.5 105.89 1100.96 88.9498 1085.24 74.9453C1084.28 74.0935 1083.3 73.2548 1082.29 72.4292C1081.17 71.5061 1079.3 72.856 1080.41 73.7726C1096.44 87.0735 1106.58 103.39 1109.57 120.704C1111.74 133.935 1109.65 147.34 1103.45 159.925C1097.26 172.509 1087.11 183.95 1073.78 193.397C1072.56 194.257 1074.47 195.578 1075.68 194.719H1075.68Z" fill="#A37FFF"/>
<path d="M1086.34 76.5389C1085.25 76.26 1084.19 75.9403 1083.15 75.5813C1083.1 75.6383 1083.04 75.6963 1082.99 75.7533L1086.34 76.5389Z" fill="#A37FFF"/>
<path d="M1087.23 52.2965C1083.45 49.018 1076.28 47.5803 1071.13 49.7462C1067.67 51.1985 1065.63 53.994 1065.27 56.8141C1065.05 59.6586 1065.95 62.4908 1067.88 64.9959C1071.2 69.5963 1076.56 73.3114 1083.15 75.5814C1086.32 72.0739 1089.29 68.3878 1090.52 64.3245C1091.78 60.1952 1091.01 55.5749 1087.23 52.2965Z" fill="#A37FFF"/>
<path d="M1133.7 75.5776C1135.56 70.1596 1135.73 64.5222 1134.2 59.0537C1132.67 53.5852 1129.47 48.4156 1124.82 43.9011C1124.01 54.9565 1107.64 62.0894 1101.74 72.3506C1099.93 75.5609 1099.18 79.0161 1099.53 82.4602C1099.88 85.9043 1101.32 89.2489 1103.76 92.2463L1104.76 100.626C1111.87 98.1714 1118.14 94.661 1123.14 90.3367C1128.13 86.0124 1131.74 80.977 1133.7 75.5776V75.5776Z" fill="#A37FFF"/>
<path d="M1163.21 106.764C1155.1 116.247 1135.89 117.114 1123.82 124.21C1120.07 126.444 1117.1 129.241 1115.1 132.395C1113.1 135.549 1112.14 138.979 1112.28 142.43L1107.56 150.156C1115.48 150.385 1123.38 149.384 1130.69 147.223C1138 145.061 1144.54 141.794 1149.85 137.651C1155.17 133.509 1159.12 128.594 1161.43 123.256C1163.73 117.917 1164.34 112.287 1163.21 106.764V106.764Z" fill="#A37FFF"/>
<path d="M1087.69 127.842C1081.55 131.366 1076.58 135.801 1073.14 140.829C1069.71 145.858 1067.89 151.358 1067.81 156.938C1067.74 162.518 1069.41 168.041 1072.71 173.115C1076.01 178.189 1080.85 182.689 1086.9 186.295L1090.86 178.361C1094.29 175.889 1096.88 172.906 1098.44 169.634C1100.01 166.362 1100.51 162.883 1099.9 159.457C1097.85 148.482 1084.54 138.688 1087.69 127.842Z" fill="#A37FFF"/>
<path d="M1088.58 234.961C1085.34 241.758 1077.52 247.073 1068.58 250.555C1068.11 250.74 1067.64 250.919 1067.17 251.091C1066.78 251.238 1066.38 251.378 1065.98 251.513C1062.75 252.021 1059.5 252.455 1056.27 252.939C1056.26 252.939 1056.25 252.945 1056.24 252.945C1051.42 253.903 1046.87 254.836 1042.59 255.745C1040.18 256.249 1037.86 256.746 1035.63 257.237C1035.34 257.295 1035.06 257.36 1034.76 257.424C1034.38 257.508 1034.01 257.592 1033.63 257.669C1033.62 257.657 1033.61 257.651 1033.61 257.638C1033.61 257.632 1033.61 257.632 1033.61 257.626C1031.9 254.922 1030.23 252.212 1028.64 249.458C1022.35 238.864 1017.35 227.912 1013.71 216.72C1009.4 203.053 1007.68 189.119 1009.98 175.211C1011.57 165.646 1015.3 156.317 1021.01 147.566C1021.84 146.318 1022.7 145.084 1023.6 143.864C1023.87 143.48 1024.16 143.101 1024.45 142.722L1024.45 142.716C1024.48 142.678 1024.52 142.64 1024.55 142.596L1024.68 142.426L1024.68 142.42C1025.47 141.397 1026.28 140.39 1027.13 139.397C1031.33 134.395 1036.31 129.734 1041.96 125.497C1051.53 118.217 1063.33 112.577 1076.47 109.008L1076.48 109.008C1077.11 108.835 1077.75 108.674 1078.39 108.513C1078.15 108.998 1077.91 109.477 1077.67 109.962C1074.46 116.482 1072 123.171 1070.31 129.967C1070.18 130.489 1070.05 131.017 1069.93 131.545C1066.12 147.94 1066.68 164.69 1071.56 180.943C1071.57 180.987 1071.59 181.031 1071.6 181.075C1072.68 184.674 1073.99 188.234 1075.52 191.755C1075.55 191.855 1075.59 191.949 1075.64 192.049C1075.93 192.732 1076.24 193.415 1076.55 194.092C1077.46 196.065 1078.44 198.023 1079.49 199.966C1085.6 211.305 1094.07 223.466 1088.58 234.961Z" fill="#011487"/>
<path d="M1183.55 103.472L1196.75 96.1125C1195.57 89.9413 1192.26 84.067 1187.12 78.9995C1186.17 90.0498 1169.72 97.0864 1163.7 107.313C1161.86 110.512 1161.06 113.963 1161.37 117.409C1161.68 120.855 1163.08 124.208 1165.48 127.219L1166.39 135.605C1173.52 133.192 1179.84 129.718 1184.88 125.424C1189.93 121.129 1193.6 116.115 1195.62 110.727C1196.72 107.696 1197.27 104.581 1197.26 101.454C1190.61 102.712 1183.55 103.472 1183.55 103.472Z" fill="#CA9AFE"/>
<path d="M1152.37 177.497C1147.1 178.348 1142.5 178.843 1142.5 178.843L1150.65 174.302C1148.8 170.501 1147.8 166.674 1149 162.719C1142.81 166.208 1137.79 170.613 1134.29 175.621C1130.8 180.63 1128.91 186.119 1128.77 191.698C1128.63 197.277 1130.24 202.81 1133.48 207.903C1136.72 212.996 1141.51 217.525 1147.52 221.166L1151.57 213.255C1155.02 210.803 1157.65 207.836 1159.25 204.573C1160.86 201.31 1161.4 197.835 1160.83 194.405C1159.81 188.557 1155.59 183.025 1152.37 177.497Z" fill="#CA9AFE"/>
<path d="M1146.79 85.4199C1144.01 87.1362 1141.39 88.9699 1138.93 90.9108L1143.14 84.0727C1141.56 83.6448 1139.87 83.464 1138.18 83.5429C1136.49 83.6218 1134.84 83.9585 1133.36 84.5297C1129.89 85.9616 1127.81 88.745 1127.42 91.563C1127.16 94.406 1128.03 97.2434 1129.93 99.7597C1133.2 104.38 1138.51 108.126 1145.07 110.434C1148.28 106.946 1151.3 103.277 1152.58 99.2212C1153.88 95.0994 1153.17 90.4747 1149.43 87.1742C1148.67 86.5083 1147.78 85.9181 1146.79 85.4199V85.4199Z" fill="#CA9AFE"/>
<path d="M1212.1 160.629L1224.34 153.806C1225.36 149.939 1225.5 145.983 1224.76 142.085C1216.54 151.52 1197.32 152.275 1185.16 159.3C1181.39 161.512 1178.38 164.292 1176.35 167.434C1174.32 170.576 1173.31 174 1173.41 177.452L1168.6 185.15C1176.51 185.387 1184.41 184.414 1191.73 182.298C1199.06 180.183 1205.65 176.974 1211.04 172.893C1216.14 168.945 1220.01 164.284 1222.38 159.215C1216.94 160.107 1212.1 160.629 1212.1 160.629Z" fill="#CA9AFE"/>
<path d="M1145.12 219.612C1142.78 221.735 1140.31 223.779 1137.69 225.743C1138.66 225.95 1139.61 226.151 1140.54 226.352C1142.83 224.599 1145.02 222.784 1147.09 220.906C1147.44 220.592 1147.79 220.272 1148.14 219.945C1151.93 216.434 1155.35 212.731 1158.36 208.866C1164.19 201.433 1168.51 193.466 1171.21 185.193C1171.27 185.049 1171.31 184.91 1171.36 184.766C1172.08 182.492 1172.68 180.194 1173.14 177.888C1173.24 177.424 1173.33 176.953 1173.42 176.488C1173.64 175.213 1173.83 173.938 1173.98 172.663C1174.53 168.015 1174.55 163.344 1174.03 158.694C1173.16 150.742 1170.8 142.906 1167.02 135.386C1166.75 134.852 1166.48 134.318 1166.19 133.79C1166.03 133.476 1165.86 133.162 1165.69 132.848C1161.14 124.575 1154.91 116.814 1147.17 109.81C1146.89 109.552 1146.6 109.301 1146.32 109.05C1145.64 108.453 1144.95 107.863 1144.26 107.279C1144.14 107.177 1144 107.096 1143.83 107.042C1143.66 106.988 1143.48 106.963 1143.29 106.969C1143.11 106.975 1142.93 107.012 1142.77 107.077C1142.61 107.142 1142.47 107.232 1142.37 107.341C1142.15 107.515 1142.03 107.74 1142.03 107.973C1142.02 108.207 1142.14 108.433 1142.36 108.61C1142.92 109.081 1143.48 109.559 1144.02 110.042C1144.69 110.614 1145.33 111.198 1145.95 111.788C1159.74 124.584 1168.37 139.755 1170.96 155.711C1172.5 165.543 1171.66 175.49 1168.47 185.124H1168.46C1166.55 190.929 1163.81 196.583 1160.29 202.001C1159.59 203.081 1158.85 204.151 1158.09 205.21C1156.11 207.967 1153.92 210.649 1151.54 213.244C1149.54 215.436 1147.4 217.559 1145.12 219.612Z" fill="#3F3D56"/>
<path d="M958.51 229.667C956.533 231.544 954.431 233.359 952.202 235.093C932.812 237.399 914.824 239.891 898.345 242.425C893.58 243.156 888.945 243.891 884.442 244.629L884.546 244.403C883.04 236.19 884.711 227.843 889.382 220.242C889.671 219.776 889.969 219.309 890.276 218.849C893.344 214.207 897.513 209.966 902.603 206.309C910.346 200.78 920.024 196.64 929.936 192.751C948.492 185.475 967.834 179.049 976.718 165.939C980.409 176.856 980.693 188.207 977.549 199.209C974.406 210.211 967.91 220.603 958.51 229.667V229.667Z" fill="#011487"/>
<path d="M857.864 194.719C866.558 188.571 873.944 181.57 879.79 173.934C885.618 166.336 889.893 158.198 892.488 149.759C895.119 141.195 895.92 132.402 894.864 123.671C892.679 105.89 883.138 88.9498 867.419 74.9453C866.459 74.0935 865.477 73.2548 864.472 72.4292C863.352 71.5061 861.482 72.856 862.595 73.7726C878.623 87.0735 888.759 103.39 891.749 120.704C893.92 133.935 891.83 147.34 885.633 159.925C879.437 172.509 869.293 183.95 855.955 193.397C854.737 194.257 856.645 195.578 857.864 194.719H857.864Z" fill="#A37FFF"/>
<path d="M868.518 76.5389C867.43 76.26 866.365 75.9403 865.327 75.5813C865.275 75.6383 865.225 75.6963 865.173 75.7533L868.518 76.5389Z" fill="#A37FFF"/>
<path d="M869.41 52.2965C865.629 49.018 858.458 47.5803 853.308 49.7462C849.854 51.1985 847.81 53.994 847.45 56.8141C847.227 59.6586 848.129 62.4908 850.056 64.9959C853.381 69.5963 858.741 73.3114 865.327 75.5814C868.499 72.0739 871.469 68.3878 872.704 64.3245C873.959 60.1952 873.191 55.5749 869.41 52.2965Z" fill="#A37FFF"/>
<path d="M915.883 75.5776C917.743 70.1596 917.913 64.5222 916.38 59.0537C914.847 53.5852 911.648 48.4156 907.003 43.9011C906.188 54.9565 889.822 62.0894 883.92 72.3506C882.114 75.5609 881.357 79.0161 881.706 82.4602C882.055 85.9043 883.501 89.2489 885.936 92.2463L886.94 100.626C894.05 98.1714 900.319 94.661 905.315 90.3367C910.312 86.0124 913.917 80.977 915.883 75.5776V75.5776Z" fill="#A37FFF"/>
<path d="M945.392 106.764C937.277 116.247 918.067 117.114 905.995 124.21C902.254 126.444 899.275 129.241 897.279 132.395C895.283 135.549 894.321 138.979 894.464 142.43L889.743 150.156C897.664 150.385 905.56 149.384 912.869 147.223C920.179 145.061 926.722 141.794 932.034 137.651C937.346 133.509 941.297 128.594 943.606 123.256C945.915 117.917 946.525 112.287 945.392 106.764V106.764Z" fill="#A37FFF"/>
<path d="M869.874 127.842C863.727 131.366 858.76 135.801 855.323 140.829C851.887 145.858 850.067 151.358 849.991 156.938C849.916 162.518 851.587 168.041 854.887 173.115C858.187 178.189 863.034 182.689 869.084 186.295L873.042 178.361C876.467 175.889 879.058 172.906 880.623 169.634C882.188 166.362 882.687 162.883 882.083 159.457C880.025 148.482 866.723 138.688 869.874 127.842Z" fill="#A37FFF"/>
<path d="M870.763 234.961C867.524 241.758 859.698 247.073 850.762 250.555C850.292 250.74 849.821 250.919 849.35 251.091C848.959 251.238 848.559 251.378 848.159 251.513C844.935 252.021 841.683 252.455 838.449 252.939C838.44 252.939 838.431 252.945 838.422 252.945C833.597 253.903 829.045 254.836 824.767 255.745C822.363 256.249 820.04 256.746 817.815 257.237C817.521 257.295 817.236 257.36 816.943 257.424C816.56 257.508 816.186 257.592 815.812 257.669C815.803 257.657 815.794 257.651 815.794 257.638C815.785 257.632 815.785 257.632 815.794 257.626C814.075 254.922 812.41 252.212 810.816 249.458C804.527 238.864 799.534 227.912 795.892 216.72C791.581 203.053 789.863 189.119 792.161 175.211C793.754 165.646 797.477 156.317 803.194 147.566C804.018 146.318 804.881 145.084 805.782 143.864C806.055 143.48 806.336 143.101 806.635 142.722L806.634 142.716C806.661 142.678 806.696 142.64 806.731 142.596L806.863 142.426L806.863 142.42C807.645 141.397 808.46 140.39 809.308 139.397C813.515 134.395 818.49 129.734 824.144 125.497C833.706 118.217 845.512 112.577 858.653 109.008L858.662 109.008C859.294 108.835 859.934 108.674 860.575 108.513C860.331 108.998 860.087 109.477 859.851 109.962C856.645 116.482 854.181 123.171 852.485 129.967C852.357 130.489 852.23 131.017 852.111 131.545C848.305 147.94 848.857 164.69 853.74 180.943C853.749 180.987 853.768 181.031 853.777 181.075C854.864 184.674 856.17 188.234 857.696 191.755C857.733 191.855 857.77 191.949 857.816 192.049C858.109 192.732 858.421 193.415 858.732 194.092C859.639 196.065 860.617 198.023 861.666 199.966C867.779 211.305 876.249 223.466 870.763 234.961Z" fill="#011487"/>
<path d="M965.726 103.472L978.934 96.1125C977.749 89.9413 974.442 84.067 969.3 78.9995C968.354 90.0498 951.904 97.0864 945.88 107.313C944.036 110.512 943.239 113.963 943.547 117.409C943.856 120.855 945.262 124.208 947.661 127.219L948.566 135.605C955.704 133.192 962.015 129.718 967.063 125.424C972.11 121.129 975.775 116.115 977.805 110.727C978.901 107.696 979.45 104.581 979.44 101.454C972.794 102.712 965.726 103.472 965.726 103.472Z" fill="#CA9AFE"/>
<path d="M934.547 177.497C929.28 178.348 924.679 178.843 924.679 178.843L932.828 174.302C930.984 170.501 929.981 166.674 931.178 162.719C924.99 166.208 919.97 170.613 916.475 175.621C912.979 180.63 911.093 186.119 910.952 191.698C910.811 197.277 912.417 202.81 915.657 207.903C918.896 212.996 923.69 217.525 929.697 221.166L933.748 213.255C937.203 210.803 939.829 207.836 941.433 204.573C943.037 201.31 943.577 197.835 943.013 194.405C941.987 188.557 937.772 183.025 934.547 177.497Z" fill="#CA9AFE"/>
<path d="M928.971 85.4199C926.194 87.1362 923.569 88.9699 921.11 90.9108L925.318 84.0727C923.738 83.6448 922.045 83.464 920.356 83.5429C918.667 83.6218 917.023 83.9585 915.537 84.5297C912.067 85.9616 909.989 88.745 909.596 91.563C909.34 94.406 910.208 97.2434 912.106 99.7597C915.376 104.38 920.691 108.126 927.25 110.434C930.464 106.946 933.478 103.277 934.761 99.2212C936.064 95.0994 935.352 90.4747 931.609 87.1742C930.846 86.5083 929.959 85.9181 928.971 85.4199V85.4199Z" fill="#CA9AFE"/>
<path d="M994.281 160.629L1006.52 153.806C1007.54 149.939 1007.68 145.983 1006.94 142.085C998.717 151.52 979.497 152.275 967.341 159.3C963.574 161.512 960.562 164.292 958.529 167.434C956.495 170.576 955.492 174 955.595 177.452L950.783 185.15C958.695 185.387 966.585 184.414 973.912 182.298C981.238 180.183 987.826 176.974 993.22 172.893C998.322 168.945 1002.19 164.284 1004.56 159.215C999.123 160.107 994.281 160.629 994.281 160.629Z" fill="#CA9AFE"/>
<path d="M927.302 219.612C924.964 221.735 922.487 223.779 919.869 225.743C920.842 225.95 921.788 226.151 922.716 226.352C925.009 224.599 927.195 222.784 929.274 220.906C929.622 220.592 929.97 220.272 930.318 219.945C934.11 216.434 937.528 212.731 940.545 208.866C946.369 201.433 950.694 193.466 953.394 185.193C953.448 185.049 953.492 184.91 953.537 184.766C954.26 182.492 954.858 180.194 955.322 177.888C955.42 177.424 955.509 176.953 955.598 176.488C955.821 175.213 956.009 173.938 956.16 172.663C956.709 168.015 956.727 163.344 956.214 158.694C955.335 150.742 952.977 142.906 949.2 135.386C948.933 134.852 948.665 134.318 948.37 133.79C948.21 133.476 948.04 133.162 947.871 132.848C943.324 124.575 937.087 116.814 929.355 109.81C929.069 109.552 928.784 109.301 928.498 109.05C927.82 108.453 927.133 107.863 926.437 107.279C926.323 107.177 926.176 107.096 926.008 107.042C925.84 106.988 925.657 106.963 925.472 106.969C925.288 106.975 925.109 107.012 924.949 107.077C924.789 107.142 924.654 107.232 924.554 107.341C924.333 107.515 924.209 107.74 924.206 107.973C924.203 108.207 924.32 108.433 924.536 108.61C925.098 109.081 925.66 109.559 926.196 110.042C926.865 110.614 927.508 111.198 928.132 111.788C941.917 124.584 950.554 139.755 953.136 155.711C954.683 165.543 953.841 175.49 950.646 185.124H950.637C948.729 190.929 945.993 196.583 942.472 202.001C941.767 203.081 941.032 204.151 940.268 205.21C938.287 207.967 936.101 210.649 933.718 213.244C931.719 215.436 929.581 217.559 927.302 219.612Z" fill="#3F3D56"/>
<path d="M742.089 228.77C740.096 230.662 737.976 232.492 735.729 234.241C716.176 236.566 698.038 239.079 681.422 241.634C676.616 242.372 671.943 243.113 667.402 243.857L667.507 243.629C665.988 235.347 667.673 226.93 672.383 219.266C672.675 218.796 672.975 218.325 673.285 217.861C676.379 213.18 680.582 208.904 685.715 205.216C693.522 199.641 703.281 195.467 713.276 191.545C731.987 184.208 751.491 177.729 760.45 164.509C764.171 175.517 764.457 186.963 761.288 198.057C758.118 209.151 751.568 219.629 742.089 228.77V228.77Z" fill="#011487"/>
<path d="M640.601 193.529C649.369 187.33 656.816 180.271 662.711 172.57C668.588 164.91 672.899 156.703 675.516 148.193C678.168 139.558 678.976 130.691 677.912 121.888C675.708 103.958 666.087 86.8759 650.237 72.7544C649.269 71.8955 648.278 71.0497 647.265 70.2172C646.135 69.2864 644.25 70.6475 645.372 71.5719C661.534 84.9839 671.755 101.437 674.77 118.896C676.959 132.237 674.851 145.755 668.603 158.444C662.355 171.134 652.126 182.67 638.677 192.197C637.448 193.064 639.373 194.396 640.601 193.529H640.601Z" fill="#A37FFF"/>
<path d="M651.344 74.3611C650.248 74.0799 649.174 73.7575 648.127 73.3955C648.075 73.453 648.024 73.5115 647.972 73.5689L651.344 74.3611Z" fill="#A37FFF"/>
<path d="M652.244 49.916C648.431 46.6102 641.2 45.1604 636.007 47.3445C632.525 48.8089 630.463 51.6277 630.101 54.4714C629.876 57.3397 630.785 60.1956 632.729 62.7216C636.081 67.3605 641.485 71.1067 648.126 73.3956C651.325 69.8589 654.32 66.1419 655.565 62.0446C656.831 57.8808 656.057 53.2219 652.244 49.916Z" fill="#A37FFF"/>
<path d="M699.106 73.3918C700.982 67.9285 701.153 62.244 699.607 56.7297C698.061 51.2155 694.835 46.0027 690.152 41.4504C689.33 52.5983 672.826 59.7908 666.875 70.1378C665.054 73.375 664.291 76.8591 664.643 80.332C664.995 83.8048 666.453 87.1774 668.908 90.1998L669.921 98.6498C677.09 96.1746 683.411 92.6348 688.45 88.2743C693.488 83.9139 697.123 78.8364 699.106 73.3918V73.3918Z" fill="#A37FFF"/>
<path d="M728.862 104.839C720.679 114.401 701.308 115.276 689.135 122.431C685.363 124.683 682.359 127.504 680.346 130.685C678.333 133.865 677.363 137.323 677.507 140.804L672.747 148.594C680.735 148.825 688.697 147.815 696.067 145.636C703.437 143.457 710.035 140.161 715.392 135.985C720.749 131.808 724.732 126.852 727.061 121.469C729.389 116.086 730.004 110.408 728.862 104.839V104.839Z" fill="#A37FFF"/>
<path d="M652.712 126.093C646.514 129.647 641.505 134.118 638.04 139.189C634.575 144.26 632.739 149.806 632.663 155.432C632.587 161.059 634.273 166.628 637.6 171.745C640.928 176.861 645.815 181.399 651.916 185.035L655.906 177.034C659.36 174.542 661.973 171.534 663.551 168.234C665.13 164.935 665.633 161.427 665.023 157.972C662.948 146.905 649.535 137.029 652.712 126.093Z" fill="#A37FFF"/>
<path d="M653.609 234.108C650.342 240.961 642.451 246.322 633.441 249.832C632.966 250.019 632.491 250.199 632.016 250.373C631.622 250.521 631.219 250.663 630.816 250.798C627.564 251.311 624.285 251.748 621.024 252.236C621.015 252.236 621.007 252.243 620.998 252.243C616.132 253.209 611.542 254.15 607.228 255.066C604.804 255.574 602.461 256.075 600.218 256.57C599.921 256.629 599.634 256.694 599.338 256.759C598.952 256.843 598.575 256.928 598.198 257.006C598.189 256.994 598.18 256.987 598.18 256.975C598.171 256.968 598.171 256.968 598.18 256.962C596.447 254.236 594.768 251.503 593.16 248.726C586.819 238.044 581.784 227 578.111 215.715C573.764 201.933 572.032 187.882 574.35 173.859C575.956 164.213 579.71 154.806 585.474 145.983C586.305 144.724 587.175 143.479 588.085 142.249C588.359 141.862 588.642 141.48 588.944 141.098L588.944 141.092C588.97 141.054 589.006 141.015 589.041 140.971L589.174 140.799L589.174 140.793C589.963 139.762 590.785 138.746 591.64 137.744C595.881 132.701 600.898 128.001 606.6 123.729C616.242 116.388 628.146 110.7 641.397 107.102L641.406 107.102C642.043 106.927 642.689 106.765 643.335 106.603C643.089 107.092 642.843 107.575 642.606 108.064C639.372 114.638 636.888 121.383 635.178 128.236C635.049 128.762 634.92 129.295 634.801 129.828C630.962 146.36 631.519 163.249 636.443 179.638C636.453 179.683 636.471 179.727 636.481 179.771C637.576 183.4 638.894 186.99 640.432 190.54C640.47 190.642 640.507 190.736 640.553 190.837C640.849 191.526 641.163 192.215 641.477 192.897C642.391 194.886 643.378 196.861 644.436 198.82C650.6 210.254 659.14 222.517 653.609 234.108Z" fill="#011487"/>
<path d="M749.366 101.52L762.684 94.0986C761.489 87.8758 758.155 81.9524 752.97 76.8425C752.016 87.9852 735.428 95.0807 729.354 105.392C727.495 108.619 726.691 112.098 727.001 115.573C727.312 119.048 728.73 122.429 731.15 125.466L732.062 133.921C739.26 131.488 745.624 127.986 750.713 123.655C755.803 119.324 759.499 114.268 761.545 108.835C762.65 105.779 763.204 102.638 763.194 99.4845C756.493 100.753 749.366 101.52 749.366 101.52Z" fill="#CA9AFE"/>
<path d="M717.926 176.163C712.615 177.022 707.975 177.521 707.975 177.521L716.193 172.941C714.333 169.109 713.321 165.25 714.529 161.262C708.289 164.78 703.227 169.222 699.702 174.272C696.178 179.323 694.276 184.857 694.134 190.483C693.991 196.109 695.611 201.688 698.877 206.824C702.144 211.96 706.978 216.526 713.035 220.198L717.121 212.221C720.604 209.749 723.252 206.756 724.869 203.466C726.487 200.176 727.031 196.671 726.462 193.213C725.428 187.316 721.178 181.738 717.926 176.163Z" fill="#CA9AFE"/>
<path d="M712.303 83.3164C709.504 85.047 706.856 86.896 704.376 88.8531L708.619 81.9579C707.026 81.5264 705.319 81.3441 703.616 81.4237C701.913 81.5033 700.255 81.8428 698.757 82.4187C695.258 83.8626 693.163 86.6693 692.767 89.5108C692.508 92.3776 693.384 95.2388 695.297 97.7761C698.595 102.435 703.954 106.212 710.568 108.54C713.808 105.022 716.848 101.323 718.141 97.2331C719.456 93.0768 718.737 88.4135 714.964 85.0854C714.194 84.4138 713.299 83.8187 712.303 83.3164V83.3164Z" fill="#CA9AFE"/>
<path d="M778.159 159.154L790.505 152.274C791.524 148.375 791.667 144.386 790.928 140.456C782.632 149.969 763.251 150.731 750.995 157.815C747.196 160.045 744.159 162.848 742.108 166.016C740.058 169.185 739.046 172.637 739.149 176.118L734.297 183.88C742.275 184.119 750.232 183.138 757.62 181.005C765.007 178.871 771.65 175.636 777.09 171.521C782.234 167.54 786.13 162.84 788.524 157.729C783.042 158.628 778.159 159.154 778.159 159.154Z" fill="#CA9AFE"/>
<path d="M710.621 218.631C708.263 220.772 705.765 222.832 703.125 224.813C704.106 225.022 705.06 225.224 705.996 225.427C708.308 223.66 710.513 221.83 712.609 219.936C712.96 219.619 713.311 219.296 713.662 218.967C717.485 215.426 720.931 211.692 723.974 207.795C729.847 200.3 734.208 192.266 736.931 183.924C736.985 183.778 737.03 183.639 737.075 183.493C737.803 181.201 738.406 178.883 738.874 176.558C738.973 176.09 739.063 175.615 739.153 175.146C739.378 173.86 739.567 172.575 739.72 171.289C740.273 166.602 740.291 161.892 739.774 157.203C738.888 149.185 736.51 141.283 732.702 133.7C732.432 133.162 732.162 132.623 731.865 132.091C731.703 131.775 731.532 131.458 731.361 131.141C726.777 122.8 720.487 114.973 712.69 107.91C712.402 107.651 712.114 107.397 711.826 107.144C711.143 106.542 710.45 105.947 709.748 105.358C709.633 105.255 709.484 105.174 709.315 105.119C709.146 105.065 708.961 105.04 708.775 105.046C708.59 105.052 708.409 105.09 708.248 105.155C708.087 105.22 707.95 105.312 707.849 105.421C707.626 105.597 707.502 105.823 707.498 106.059C707.495 106.294 707.613 106.522 707.831 106.701C708.398 107.176 708.965 107.657 709.505 108.145C710.18 108.721 710.828 109.31 711.457 109.906C725.358 122.808 734.067 138.107 736.67 154.195C738.23 164.11 737.381 174.14 734.159 183.854H734.15C732.226 189.708 729.468 195.409 725.917 200.872C725.206 201.962 724.466 203.04 723.695 204.109C721.698 206.889 719.493 209.593 717.09 212.209C715.075 214.42 712.918 216.56 710.621 218.631Z" fill="#3F3D56"/>
<path d="M525.345 230.309C523.414 232.143 521.36 233.916 519.183 235.611C500.237 237.863 482.662 240.299 466.561 242.774C461.904 243.489 457.376 244.207 452.976 244.928L453.078 244.707C451.606 236.682 453.238 228.526 457.803 221.1C458.085 220.644 458.376 220.189 458.676 219.739C461.674 215.203 465.747 211.06 470.72 207.486C478.286 202.084 487.742 198.039 497.427 194.239C515.557 187.13 534.456 180.852 543.136 168.042C546.743 178.709 547.02 189.8 543.949 200.549C540.877 211.299 534.53 221.452 525.345 230.309V230.309Z" fill="#011487"/>
<path d="M427.007 196.162C435.503 190.155 442.718 183.315 448.43 175.853C454.125 168.43 458.302 160.478 460.838 152.233C463.408 143.865 464.191 135.274 463.16 126.743C461.025 109.37 451.702 92.8179 436.343 79.1345C435.406 78.3022 434.446 77.4827 433.464 76.676C432.369 75.7741 430.543 77.093 431.63 77.9886C447.291 90.9846 457.194 106.927 460.116 123.844C462.237 136.772 460.194 149.87 454.14 162.166C448.085 174.462 438.174 185.64 425.142 194.871C423.952 195.711 425.817 197.002 427.007 196.162H427.007Z" fill="#A37FFF"/>
<path d="M437.417 80.6915C436.354 80.419 435.314 80.1067 434.299 79.7559C434.249 79.8116 434.199 79.8682 434.149 79.9239L437.417 80.6915Z" fill="#A37FFF"/>
<path d="M438.289 57.0049C434.594 53.8016 427.587 52.3969 422.555 54.5131C419.181 55.9321 417.183 58.6635 416.832 61.419C416.614 64.1982 417.496 66.9655 419.379 69.4131C422.627 73.9081 427.864 77.5381 434.299 79.7559C437.398 76.3289 440.301 72.7273 441.507 68.7572C442.733 64.7225 441.983 60.2082 438.289 57.0049Z" fill="#A37FFF"/>
<path d="M483.696 79.7522C485.514 74.4585 485.68 68.9503 484.182 63.6072C482.684 58.264 479.558 53.213 475.02 48.802C474.224 59.604 458.232 66.5733 452.466 76.5992C450.701 79.7359 449.962 83.1119 450.303 86.477C450.644 89.8422 452.056 93.1101 454.436 96.0387L455.417 104.226C462.363 101.828 468.489 98.3981 473.371 94.173C478.253 89.9478 481.776 85.0279 483.696 79.7522V79.7522Z" fill="#A37FFF"/>
<path d="M512.529 110.223C504.6 119.489 485.83 120.337 474.035 127.27C470.38 129.452 467.469 132.186 465.519 135.267C463.568 138.349 462.628 141.7 462.768 145.072L458.156 152.621C465.895 152.845 473.61 151.866 480.752 149.755C487.893 147.643 494.287 144.45 499.477 140.403C504.667 136.356 508.528 131.553 510.784 126.337C513.039 121.121 513.635 115.62 512.529 110.223V110.223Z" fill="#A37FFF"/>
<path d="M438.742 130.818C432.736 134.262 427.882 138.594 424.525 143.508C421.167 148.422 419.389 153.795 419.315 159.247C419.241 164.699 420.875 170.096 424.099 175.053C427.323 180.011 432.059 184.408 437.97 187.932L441.837 180.179C445.184 177.764 447.716 174.849 449.245 171.652C450.774 168.455 451.261 165.056 450.671 161.708C448.661 150.985 435.664 141.415 438.742 130.818Z" fill="#A37FFF"/>
<path d="M439.611 235.482C436.446 242.122 428.8 247.316 420.069 250.718C419.609 250.899 419.149 251.073 418.688 251.242C418.307 251.385 417.916 251.522 417.525 251.653C414.375 252.151 411.197 252.574 408.038 253.047C408.029 253.047 408.02 253.053 408.012 253.053C403.297 253.989 398.849 254.901 394.669 255.789C392.321 256.281 390.051 256.767 387.877 257.246C387.59 257.303 387.311 257.366 387.024 257.429C386.65 257.511 386.285 257.593 385.92 257.669C385.911 257.657 385.902 257.651 385.902 257.639C385.893 257.632 385.893 257.632 385.902 257.626C384.223 254.985 382.596 252.337 381.038 249.646C374.893 239.295 370.015 228.594 366.456 217.659C362.244 204.305 360.565 190.69 362.811 177.102C364.367 167.755 368.005 158.64 373.591 150.091C374.396 148.871 375.239 147.665 376.12 146.473C376.386 146.097 376.661 145.727 376.953 145.358L376.952 145.351C376.978 145.314 377.013 145.277 377.047 145.234L377.176 145.068L377.176 145.062C377.94 144.063 378.736 143.078 379.565 142.108C383.675 137.221 388.536 132.667 394.061 128.527C403.404 121.414 414.938 115.903 427.779 112.416L427.787 112.416C428.404 112.247 429.03 112.09 429.656 111.933C429.418 112.407 429.179 112.874 428.949 113.348C425.816 119.719 423.409 126.255 421.752 132.894C421.627 133.404 421.502 133.921 421.387 134.437C417.667 150.456 418.207 166.822 422.978 182.702C422.987 182.745 423.005 182.788 423.014 182.831C424.076 186.347 425.352 189.825 426.843 193.266C426.88 193.364 426.915 193.456 426.96 193.554C427.247 194.221 427.551 194.888 427.856 195.549C428.742 197.477 429.697 199.39 430.722 201.289C436.695 212.368 444.971 224.25 439.611 235.482Z" fill="#011487"/>
<path d="M532.397 107.008L545.302 99.8164C544.144 93.7867 540.913 88.047 535.889 83.0957C534.965 93.8926 518.891 100.768 513.006 110.76C511.204 113.886 510.425 117.257 510.726 120.624C511.028 123.991 512.401 127.268 514.746 130.21L515.63 138.403C522.605 136.046 528.771 132.652 533.703 128.455C538.635 124.259 542.215 119.36 544.198 114.096C545.269 111.135 545.806 108.091 545.796 105.035C539.303 106.264 532.397 107.008 532.397 107.008Z" fill="#CA9AFE"/>
<path d="M501.932 179.334C496.786 180.166 492.29 180.65 492.29 180.65L500.253 176.213C498.451 172.499 497.471 168.76 498.641 164.896C492.595 168.305 487.69 172.609 484.274 177.502C480.859 182.396 479.017 187.759 478.878 193.21C478.74 198.662 480.31 204.068 483.475 209.044C486.64 214.02 491.324 218.445 497.193 222.003L501.152 214.273C504.527 211.878 507.094 208.979 508.66 205.79C510.227 202.602 510.755 199.206 510.204 195.855C509.202 190.141 505.083 184.736 501.932 179.334Z" fill="#CA9AFE"/>
<path d="M496.484 89.3689C493.771 91.0458 491.206 92.8375 488.803 94.7339L492.915 88.0526C491.371 87.6345 489.717 87.4578 488.067 87.5349C486.417 87.612 484.81 87.941 483.359 88.4991C479.968 89.8982 477.938 92.6178 477.554 95.3711C477.303 98.149 478.152 100.921 480.006 103.38C483.201 107.894 488.394 111.554 494.803 113.81C497.943 110.401 500.888 106.817 502.141 102.854C503.415 98.8264 502.719 94.3078 499.062 91.083C498.317 90.4323 497.45 89.8557 496.484 89.3689V89.3689Z" fill="#CA9AFE"/>
<path d="M560.297 162.853L572.26 156.187C573.247 152.408 573.385 148.544 572.669 144.735C564.631 153.954 545.852 154.692 533.975 161.556C530.294 163.716 527.351 166.432 525.364 169.503C523.377 172.573 522.398 175.918 522.497 179.291L517.796 186.812C525.526 187.044 533.236 186.094 540.395 184.026C547.553 181.959 553.99 178.824 559.261 174.837C564.246 170.979 568.02 166.425 570.34 161.472C565.028 162.344 560.297 162.853 560.297 162.853Z" fill="#CA9AFE"/>
<path d="M494.854 220.485C492.569 222.559 490.149 224.556 487.591 226.475C488.541 226.677 489.466 226.873 490.372 227.07C492.613 225.358 494.749 223.584 496.781 221.749C497.121 221.442 497.461 221.129 497.801 220.81C501.505 217.38 504.845 213.761 507.792 209.985C513.483 202.723 517.709 194.938 520.347 186.855C520.4 186.714 520.443 186.579 520.487 186.437C521.193 184.216 521.777 181.97 522.231 179.718C522.327 179.263 522.414 178.803 522.501 178.349C522.719 177.103 522.902 175.857 523.05 174.612C523.586 170.07 523.604 165.506 523.103 160.963C522.244 153.193 519.94 145.537 516.25 138.189C515.988 137.668 515.727 137.146 515.439 136.63C515.282 136.324 515.116 136.017 514.951 135.71C510.509 127.627 504.414 120.043 496.859 113.2C496.58 112.948 496.301 112.703 496.022 112.457C495.36 111.874 494.688 111.297 494.008 110.727C493.897 110.627 493.753 110.548 493.589 110.495C493.425 110.443 493.246 110.418 493.066 110.424C492.886 110.43 492.711 110.466 492.555 110.53C492.399 110.593 492.266 110.681 492.168 110.788C491.953 110.958 491.832 111.177 491.829 111.405C491.825 111.634 491.94 111.855 492.151 112.028C492.7 112.488 493.25 112.954 493.773 113.427C494.427 113.985 495.054 114.556 495.665 115.133C509.134 127.635 517.572 142.459 520.095 158.048C521.606 167.656 520.784 177.374 517.662 186.787H517.653C515.789 192.459 513.116 197.983 509.676 203.277C508.987 204.333 508.269 205.378 507.522 206.413C505.587 209.107 503.451 211.727 501.123 214.262C499.17 216.404 497.08 218.478 494.854 220.485Z" fill="#3F3D56"/>
<path d="M355.86 242.735C353.768 244.722 351.543 246.643 349.184 248.478C328.661 250.918 309.624 253.556 292.183 256.238C287.139 257.012 282.234 257.79 277.467 258.571L277.578 258.331C275.984 249.638 277.752 240.804 282.696 232.76C283.002 232.266 283.318 231.773 283.642 231.285C286.89 226.372 291.302 221.884 296.689 218.013C304.884 212.161 315.127 207.78 325.618 203.663C345.257 195.963 365.728 189.162 375.131 175.286C379.038 186.841 379.338 198.855 376.011 210.499C372.684 222.143 365.809 233.141 355.86 242.735V242.735Z" fill="#011487"/>
<path d="M249.338 205.746C258.54 199.24 266.357 191.83 272.544 183.748C278.713 175.707 283.238 167.093 285.984 158.161C288.769 149.097 289.616 139.791 288.499 130.55C286.186 111.731 276.087 93.8016 259.451 78.9794C258.435 78.0779 257.396 77.1902 256.332 76.3164C255.146 75.3394 253.168 76.7681 254.345 77.7383C271.309 91.8157 282.037 109.085 285.202 127.41C287.5 141.413 285.287 155.601 278.729 168.921C272.17 182.24 261.434 194.348 247.318 204.348C246.028 205.258 248.048 206.656 249.338 205.746H249.338Z" fill="#A37FFF"/>
<path d="M260.614 80.6663C259.463 80.3711 258.336 80.0328 257.236 79.6528C257.182 79.7132 257.129 79.7746 257.074 79.8348L260.614 80.6663Z" fill="#A37FFF"/>
<path d="M261.558 55.0082C257.556 51.5384 249.966 50.0167 244.516 52.3091C240.861 53.8462 238.697 56.8049 238.316 59.7897C238.08 62.8002 239.035 65.7978 241.074 68.4491C244.594 73.3182 250.266 77.2502 257.236 79.6526C260.593 75.9405 263.737 72.039 265.044 67.7386C266.372 63.3681 265.56 58.4781 261.558 55.0082Z" fill="#A37FFF"/>
<path d="M310.744 79.6488C312.713 73.9145 312.893 67.9479 311.27 62.1601C309.648 56.3723 306.262 50.9009 301.346 46.1228C300.484 57.8237 283.161 65.3731 276.915 76.2334C275.003 79.6311 274.202 83.2881 274.572 86.9333C274.941 90.5784 276.471 94.1183 279.049 97.2907L280.111 106.16C287.636 103.562 294.271 99.8464 299.56 95.2696C304.848 90.6929 308.664 85.3635 310.744 79.6488V79.6488Z" fill="#A37FFF"/>
<path d="M341.977 112.656C333.388 122.692 313.056 123.611 300.279 131.121C296.32 133.485 293.167 136.446 291.054 139.784C288.942 143.122 287.923 146.752 288.075 150.405L283.078 158.581C291.462 158.824 299.819 157.764 307.555 155.477C315.291 153.19 322.216 149.731 327.839 145.347C333.461 140.963 337.643 135.761 340.086 130.111C342.53 124.461 343.175 118.501 341.977 112.656V112.656Z" fill="#A37FFF"/>
<path d="M262.049 134.964C255.544 138.695 250.286 143.388 246.649 148.711C243.012 154.033 241.085 159.854 241.005 165.76C240.926 171.666 242.695 177.511 246.187 182.881C249.68 188.251 254.81 193.014 261.213 196.831L265.402 188.433C269.027 185.817 271.77 182.66 273.426 179.197C275.083 175.733 275.61 172.052 274.971 168.425C272.793 156.809 258.714 146.444 262.049 134.964Z" fill="#A37FFF"/>
<path d="M262.99 248.338C259.562 255.532 251.279 261.158 241.822 264.843C241.323 265.039 240.825 265.228 240.327 265.41C239.913 265.565 239.49 265.714 239.066 265.856C235.654 266.395 232.212 266.854 228.79 267.366C228.78 267.366 228.771 267.372 228.761 267.372C223.654 268.386 218.837 269.374 214.308 270.336C211.764 270.869 209.306 271.395 206.951 271.915C206.64 271.976 206.338 272.044 206.027 272.113C205.622 272.202 205.227 272.29 204.831 272.372C204.821 272.359 204.812 272.353 204.812 272.339C204.802 272.333 204.802 272.333 204.812 272.326C202.993 269.465 201.23 266.597 199.543 263.681C192.887 252.469 187.603 240.877 183.747 229.032C179.184 214.567 177.367 199.819 179.799 185.1C181.485 174.976 185.425 165.102 191.476 155.841C192.348 154.519 193.261 153.213 194.216 151.922C194.504 151.515 194.801 151.115 195.117 150.714L195.117 150.707C195.145 150.667 195.183 150.627 195.22 150.58L195.359 150.4L195.359 150.393C196.187 149.312 197.05 148.245 197.947 147.194C202.399 141.9 207.665 136.967 213.649 132.483C223.77 124.778 236.264 118.808 250.173 115.031L250.183 115.031C250.851 114.848 251.529 114.677 252.207 114.507C251.949 115.021 251.69 115.527 251.441 116.041C248.047 122.941 245.44 130.021 243.645 137.213C243.51 137.766 243.375 138.325 243.249 138.884C239.221 156.236 239.805 173.964 244.973 191.166C244.983 191.213 245.003 191.259 245.013 191.306C246.163 195.115 247.545 198.883 249.16 202.609C249.199 202.715 249.238 202.815 249.287 202.921C249.598 203.644 249.927 204.366 250.257 205.082C251.217 207.171 252.252 209.243 253.362 211.3C259.832 223.301 268.796 236.172 262.99 248.338Z" fill="#011487"/>
<path d="M363.498 109.172L377.477 101.383C376.223 94.8512 372.723 88.6338 367.281 83.2705C366.28 94.966 348.869 102.413 342.493 113.237C340.542 116.623 339.698 120.275 340.024 123.923C340.35 127.57 341.838 131.119 344.378 134.306L345.336 143.181C352.891 140.627 359.57 136.951 364.912 132.405C370.255 127.859 374.133 122.553 376.281 116.85C377.441 113.643 378.023 110.345 378.012 107.036C370.978 108.367 363.498 109.172 363.498 109.172Z" fill="#CA9AFE"/>
<path d="M330.499 187.518C324.924 188.42 320.054 188.944 320.054 188.944L328.68 184.137C326.727 180.115 325.665 176.064 326.933 171.878C320.384 175.571 315.071 180.233 311.371 185.534C307.671 190.835 305.676 196.644 305.526 202.549C305.376 208.454 307.076 214.31 310.505 219.701C313.934 225.091 319.007 229.884 325.365 233.738L329.653 225.365C333.309 222.77 336.089 219.63 337.786 216.176C339.484 212.722 340.055 209.044 339.459 205.414C338.373 199.225 333.911 193.37 330.499 187.518Z" fill="#CA9AFE"/>
<path d="M324.596 90.0657C321.658 91.8822 318.879 93.8229 316.276 95.8772L320.73 88.6399C319.058 88.187 317.266 87.9956 315.479 88.0791C313.691 88.1626 311.951 88.519 310.379 89.1235C306.706 90.6391 304.507 93.585 304.091 96.5675C303.819 99.5765 304.738 102.58 306.747 105.243C310.208 110.132 315.834 114.097 322.775 116.541C326.176 112.848 329.367 108.966 330.724 104.673C332.104 100.31 331.35 95.4157 327.389 91.9225C326.582 91.2176 325.642 90.593 324.596 90.0657V90.0657Z" fill="#CA9AFE"/>
<path d="M393.72 169.666L406.679 162.445C407.748 158.352 407.898 154.165 407.122 150.04C398.415 160.025 378.073 160.825 365.208 168.26C361.22 170.6 358.032 173.543 355.88 176.868C353.728 180.194 352.667 183.818 352.775 187.471L347.682 195.618C356.056 195.87 364.407 194.84 372.162 192.601C379.916 190.361 386.888 186.965 392.598 182.647C397.997 178.467 402.086 173.535 404.598 168.17C398.845 169.114 393.72 169.666 393.72 169.666Z" fill="#CA9AFE"/>
<path d="M322.831 232.093C320.356 234.34 317.734 236.503 314.964 238.582C315.993 238.801 316.994 239.014 317.976 239.226C320.404 237.372 322.717 235.45 324.918 233.463C325.286 233.13 325.655 232.791 326.023 232.446C330.035 228.73 333.653 224.81 336.846 220.719C343.011 212.853 347.588 204.42 350.446 195.665C350.503 195.512 350.55 195.365 350.597 195.212C351.362 192.806 351.995 190.373 352.486 187.933C352.59 187.441 352.684 186.943 352.779 186.451C353.015 185.101 353.213 183.752 353.374 182.403C353.955 177.483 353.974 172.539 353.43 167.618C352.501 159.202 350.005 150.908 346.007 142.949C345.724 142.384 345.441 141.819 345.129 141.26C344.959 140.928 344.779 140.596 344.6 140.263C339.788 131.507 333.186 123.293 325.003 115.88C324.701 115.607 324.399 115.341 324.096 115.075C323.379 114.444 322.651 113.819 321.915 113.201C321.794 113.093 321.638 113.007 321.461 112.95C321.283 112.893 321.089 112.867 320.894 112.873C320.699 112.88 320.509 112.919 320.34 112.987C320.171 113.056 320.028 113.152 319.922 113.267C319.688 113.451 319.557 113.689 319.554 113.936C319.55 114.183 319.674 114.423 319.903 114.61C320.498 115.109 321.093 115.614 321.66 116.126C322.368 116.731 323.048 117.349 323.709 117.974C338.299 131.516 347.44 147.574 350.172 164.461C351.81 174.868 350.919 185.395 347.537 195.591H347.528C345.508 201.735 342.613 207.719 338.886 213.454C338.14 214.597 337.363 215.729 336.553 216.85C334.457 219.769 332.143 222.607 329.621 225.353C327.506 227.673 325.242 229.92 322.831 232.093Z" fill="#3F3D56"/>
<path d="M164.606 227.847C162.759 229.755 160.795 231.6 158.714 233.363C140.599 235.707 123.795 238.241 108.401 240.816C103.949 241.56 99.6192 242.307 95.4119 243.057L95.5094 242.827C94.1022 234.478 95.6631 225.992 100.027 218.266C100.297 217.792 100.576 217.317 100.862 216.849C103.729 212.13 107.623 207.819 112.378 204.101C119.611 198.481 128.652 194.272 137.913 190.318C155.247 182.922 173.316 176.39 181.616 163.062C185.065 174.16 185.33 185.699 182.393 196.884C179.456 208.068 173.388 218.632 164.606 227.847V227.847Z" fill="#011487"/>
<path d="M70.5826 192.319C78.7053 186.069 85.6046 178.952 91.0659 171.189C96.511 163.466 100.505 155.192 102.929 146.613C105.387 137.907 106.135 128.969 105.149 120.093C103.107 102.017 94.1935 84.796 79.5094 70.5593C78.6128 69.6934 77.695 68.8408 76.7562 68.0015C75.7095 67.0631 73.9632 68.4353 75.0026 69.3672C89.9762 82.8886 99.4454 99.476 102.239 117.077C104.267 130.527 102.314 144.155 96.5249 156.948C90.736 169.741 81.2598 181.371 68.7996 190.976C67.6613 191.85 69.4445 193.193 70.5827 192.319H70.5826Z" fill="#A37FFF"/>
<path d="M80.536 72.1791C79.5204 71.8955 78.5253 71.5706 77.5551 71.2056C77.5069 71.2636 77.4599 71.3225 77.4116 71.3804L80.536 72.1791Z" fill="#A37FFF"/>
<path d="M81.3698 47.5346C77.8374 44.2018 71.138 42.7402 66.3268 44.942C63.1008 46.4184 61.1906 49.2602 60.8547 52.1271C60.6462 55.0187 61.4891 57.8979 63.2894 60.4446C66.3957 65.1213 71.4023 68.898 77.5548 71.2056C80.5181 67.64 83.2932 63.8927 84.4468 59.7621C85.6191 55.5643 84.9022 50.8674 81.3698 47.5346Z" fill="#A37FFF"/>
<path d="M124.784 71.2017C126.522 65.694 126.681 59.963 125.249 54.4039C123.816 48.8447 120.828 43.5893 116.489 39C115.728 50.2388 100.438 57.4899 94.9239 67.9213C93.2368 71.1848 92.53 74.6973 92.8561 78.1985C93.1822 81.6997 94.5327 85.0998 96.8076 88.1469L97.7456 96.6657C104.387 94.1703 110.244 90.6016 114.912 86.2056C119.58 81.8096 122.948 76.6908 124.784 71.2017V71.2017Z" fill="#A37FFF"/>
<path d="M152.352 102.905C144.771 112.545 126.825 113.428 115.547 120.641C112.053 122.912 109.27 125.756 107.405 128.962C105.54 132.168 104.641 135.655 104.775 139.163L100.365 147.017C107.765 147.25 115.141 146.232 121.969 144.035C128.798 141.838 134.91 138.516 139.873 134.305C144.836 130.094 148.527 125.098 150.683 119.671C152.84 114.244 153.41 108.52 152.352 102.905V102.905Z" fill="#A37FFF"/>
<path d="M81.8024 124.332C76.0606 127.915 71.4198 132.423 68.2096 137.536C64.9994 142.648 63.2986 148.239 63.2282 153.911C63.1578 159.584 64.7195 165.199 67.8022 170.357C70.8849 175.515 75.4131 180.089 81.0648 183.755L84.7622 175.689C87.9621 173.176 90.3828 170.144 91.8449 166.818C93.3069 163.491 93.7729 159.955 93.2082 156.472C91.2862 145.315 78.8594 135.358 81.8024 124.332Z" fill="#A37FFF"/>
<path d="M82.6335 233.229C79.6075 240.138 72.2968 245.542 63.9489 249.081C63.5091 249.269 63.0692 249.451 62.6293 249.626C62.2641 249.775 61.8905 249.918 61.5169 250.055C58.5047 250.572 55.4666 251.013 52.4458 251.505C52.4375 251.505 52.4293 251.511 52.4209 251.511C47.9132 252.485 43.6608 253.434 39.6637 254.357C37.4185 254.87 35.2481 255.375 33.1694 255.874C32.895 255.933 32.6289 255.999 32.3545 256.064C31.997 256.149 31.6478 256.235 31.2985 256.313C31.29 256.301 31.2816 256.294 31.2815 256.282C31.2731 256.275 31.2731 256.275 31.2814 256.269C29.6759 253.521 28.1203 250.766 26.631 247.966C20.7559 237.196 16.0916 226.062 12.6889 214.685C8.66129 200.791 7.05667 186.626 9.20377 172.488C10.6918 162.764 14.1699 153.28 19.5104 144.385C20.2803 143.116 21.0864 141.861 21.9288 140.621C22.1829 140.23 22.4455 139.845 22.7247 139.46L22.7247 139.454C22.7493 139.415 22.7822 139.377 22.8151 139.332L22.9382 139.159L22.9381 139.152C23.6688 138.113 24.4302 137.089 25.2223 136.079C29.152 130.995 33.8 126.256 39.0822 121.95C48.0152 114.549 59.0436 108.815 71.3205 105.187L71.3288 105.187C71.9188 105.011 72.5173 104.847 73.1157 104.684C72.8877 105.177 72.6595 105.664 72.4398 106.157C69.444 112.785 67.1429 119.585 65.5583 126.493C65.439 127.024 65.3198 127.561 65.209 128.098C61.6529 144.765 62.1689 161.792 66.7305 178.315C66.7394 178.359 66.7565 178.404 66.7653 178.449C67.7805 182.107 69.0009 185.726 70.4264 189.306C70.4609 189.408 70.4953 189.503 70.5381 189.605C70.8124 190.299 71.1034 190.994 71.3943 191.681C72.2414 193.687 73.1551 195.678 74.1352 197.653C79.8461 209.181 87.7584 221.543 82.6335 233.229Z" fill="#011487"/>
<path d="M171.348 99.5594L183.687 92.0775C182.58 85.8039 179.491 79.8321 174.687 74.6807C173.803 85.9142 158.435 93.0675 152.808 103.463C151.086 106.716 150.341 110.224 150.629 113.727C150.917 117.23 152.23 120.639 154.472 123.7L155.317 132.225C161.986 129.772 167.881 126.241 172.597 121.875C177.312 117.508 180.736 112.411 182.632 106.934C183.656 103.853 184.169 100.686 184.16 97.5072C177.951 98.7861 171.348 99.5594 171.348 99.5594Z" fill="#CA9AFE"/>
<path d="M142.221 174.811C137.3 175.677 133.002 176.18 133.002 176.18L140.615 171.563C138.892 167.7 137.955 163.809 139.074 159.789C133.293 163.335 128.604 167.813 125.338 172.905C122.072 177.996 120.311 183.576 120.179 189.248C120.046 194.92 121.547 200.545 124.574 205.722C127.6 210.9 132.078 215.503 137.69 219.205L141.475 211.163C144.702 208.67 147.156 205.654 148.654 202.337C150.152 199.02 150.656 195.487 150.13 192C149.171 186.055 145.233 180.431 142.221 174.811Z" fill="#CA9AFE"/>
<path d="M137.011 81.2072C134.418 82.9519 131.965 84.816 129.667 86.7891L133.599 79.8377C132.123 79.4027 130.541 79.2189 128.963 79.2991C127.386 79.3793 125.85 79.7216 124.462 80.3022C121.22 81.7579 119.279 84.5875 118.912 87.4521C118.672 90.3423 119.484 93.2268 121.256 95.7848C124.311 100.481 129.277 104.29 135.404 106.636C138.406 103.09 141.222 99.3605 142.42 95.2374C143.638 91.0472 142.972 86.3459 139.476 82.9906C138.764 82.3136 137.934 81.7137 137.011 81.2072V81.2072Z" fill="#CA9AFE"/>
<path d="M198.024 157.663L209.462 150.727C210.406 146.796 210.538 142.775 209.853 138.812C202.168 148.404 184.212 149.171 172.857 156.313C169.338 158.561 166.524 161.387 164.624 164.581C162.724 167.775 161.788 171.256 161.883 174.766L157.388 182.591C164.779 182.832 172.151 181.843 178.995 179.692C185.839 177.541 191.993 174.279 197.033 170.131C201.799 166.117 205.408 161.379 207.626 156.226C202.548 157.133 198.024 157.663 198.024 157.663Z" fill="#CA9AFE"/>
<path d="M135.452 217.625C133.268 219.784 130.954 221.861 128.508 223.857C129.417 224.068 130.301 224.272 131.168 224.477C133.31 222.695 135.352 220.85 137.295 218.941C137.62 218.621 137.945 218.296 138.27 217.964C141.812 214.395 145.005 210.63 147.823 206.701C153.265 199.145 157.305 191.045 159.827 182.635C159.877 182.488 159.919 182.348 159.961 182.201C160.636 179.89 161.195 177.553 161.628 175.21C161.72 174.737 161.803 174.258 161.886 173.786C162.095 172.49 162.27 171.193 162.412 169.897C162.924 165.172 162.941 160.424 162.462 155.697C161.641 147.613 159.438 139.647 155.909 132.002C155.659 131.459 155.409 130.916 155.134 130.38C154.984 130.061 154.826 129.742 154.667 129.422C150.42 121.012 144.593 113.122 137.37 106.002C137.103 105.74 136.836 105.485 136.57 105.229C135.936 104.623 135.294 104.023 134.644 103.429C134.537 103.325 134.4 103.243 134.243 103.188C134.086 103.133 133.915 103.108 133.743 103.114C133.571 103.12 133.403 103.158 133.254 103.224C133.105 103.29 132.978 103.382 132.885 103.493C132.678 103.67 132.563 103.898 132.56 104.135C132.557 104.372 132.666 104.602 132.868 104.782C133.393 105.261 133.919 105.747 134.419 106.238C135.044 106.819 135.644 107.413 136.228 108.013C149.106 121.021 157.174 136.444 159.586 152.664C161.031 162.66 160.245 172.771 157.26 182.565H157.252C155.469 188.466 152.914 194.214 149.624 199.722C148.966 200.82 148.279 201.908 147.565 202.985C145.715 205.787 143.672 208.513 141.446 211.151C139.579 213.379 137.581 215.538 135.452 217.625Z" fill="#3F3D56"/>
</g>
</g>
<defs>
<filter id="filter0_d_125_1622" x="-3" y="39" width="1454" height="248" filterUnits="userSpaceOnUse" color-interpolation-filters="sRGB">
<feFlood flood-opacity="0" result="BackgroundImageFix"/>
<feColorMatrix in="SourceAlpha" type="matrix" values="0 0 0 0 0 0 0 0 0 0 0 0 0 0 0 0 0 0 127 0" result="hardAlpha"/>
<feOffset dy="4"/>
<feGaussianBlur stdDeviation="1"/>
<feComposite in2="hardAlpha" operator="out"/>
<feColorMatrix type="matrix" values="0 0 0 0 0 0 0 0 0 0 0 0 0 0 0 0 0 0 0.25 0"/>
<feBlend mode="normal" in2="BackgroundImageFix" result="effect1_dropShadow_125_1622"/>
<feBlend mode="normal" in="SourceGraphic" in2="effect1_dropShadow_125_1622" result="shape"/>
</filter>
<clipPath id="clip0_125_1622">
<rect width="1440" height="201" fill="white"/>
</clipPath>
</defs>
</svg>
