<svg width="174" height="138" viewBox="0 0 174 138" fill="none" xmlns="http://www.w3.org/2000/svg">
<path d="M101.688 72.0595C105.467 73.2029 109.356 73.7834 113.233 73.783C117.092 73.7862 120.9 73.225 124.546 72.1162C128.245 70.9901 131.729 69.2891 134.883 67.0693C141.301 62.5384 146.182 56.0825 148.925 48.5001C149.091 48.0378 149.249 47.5719 149.397 47.1025C149.564 46.5785 148.741 46.3388 148.575 46.8592C146.152 54.376 141.606 60.8654 135.5 65.5245C130.815 69.0522 125.359 71.3962 119.538 72.3826C113.717 73.369 107.681 72.9723 101.876 71.2221C101.347 71.0615 101.159 71.8989 101.688 72.0595L101.688 72.0595Z" fill="#A37FFF"/>
<path d="M148.499 49.165C148.426 48.792 148.372 48.4164 148.337 48.0398C148.307 48.0375 148.276 48.0358 148.246 48.0335L148.499 49.165Z" fill="#A37FFF"/>
<path d="M157.888 44.098C158.513 42.2938 157.877 39.9217 156.2 38.9205C155.076 38.2491 153.673 38.2766 152.539 38.7928C151.417 39.3533 150.487 40.2339 149.85 41.3366C148.646 43.3003 148.114 45.6528 148.337 48.0398C150.198 48.1793 152.094 48.2217 153.847 47.6836C155.628 47.1367 157.263 45.9021 157.888 44.098Z" fill="#A37FFF"/>
<path d="M156.689 62.5362C159.062 61.88 161.239 60.6908 163.07 59.0505C164.902 57.4101 166.344 55.3577 167.298 53.0345C162.949 55.2283 157.526 52.1013 152.64 52.6619C151.117 52.8489 149.675 53.3907 148.42 54.247C147.165 55.1033 146.129 56.2523 145.388 57.6087L142.359 59.7367C144.47 61.2364 146.843 62.2633 149.317 62.7466C151.791 63.2299 154.306 63.1581 156.689 62.5362Z" fill="#A37FFF"/>
<path d="M149.674 77.8461C144.719 77.6013 141.215 72.2831 136.516 70.3796C135.047 69.7973 133.488 69.5573 131.956 69.6774C130.424 69.7975 128.958 70.2747 127.666 71.0735L123.941 71.4162C125.162 73.7381 126.848 75.7824 128.879 77.4038C130.91 79.0252 133.237 80.184 135.693 80.7978C138.15 81.4116 140.676 81.4653 143.092 80.9552C145.509 80.445 147.756 79.3835 149.674 77.8461Z" fill="#A37FFF"/>
<path d="M129.166 60.8186C126.807 59.8301 124.296 59.3793 121.811 59.4981C119.327 59.6169 116.93 60.3025 114.79 61.5062C112.65 62.7098 110.821 64.4019 109.432 66.4623C108.043 68.5226 107.128 70.9007 106.752 73.4274L110.431 72.82C111.939 73.2595 113.504 73.3477 115.01 73.0779C116.516 72.8082 117.924 72.1874 119.13 71.2617C122.974 68.2618 124.511 62.2968 129.166 60.8186Z" fill="#A37FFF"/>
<path d="M154.288 82.9542L159.275 85.1256C161.432 83.4309 163.125 81.1927 164.207 78.6054C159.839 80.7606 154.439 77.5884 149.546 78.1066C148.022 78.2804 146.574 78.8094 145.312 79.6545C144.049 80.4995 143.003 81.639 142.251 82.9883L139.204 85.089C141.303 86.6062 143.669 87.6531 146.14 88.1575C148.611 88.6619 151.128 88.6118 153.517 88.0107C154.854 87.6596 156.132 87.1331 157.322 86.4435C155.745 84.814 154.288 82.9542 154.288 82.9542Z" fill="#CA9AFE"/>
<path d="M120.919 90.2676C119.725 88.9442 118.776 87.7334 118.776 87.7334L121.853 89.0732C122.997 87.7097 124.291 86.5817 125.996 86.0568C123.644 85.0484 121.136 84.5762 118.649 84.6735C116.162 84.7708 113.758 85.4354 111.608 86.6199C109.458 87.8045 107.614 89.4799 106.207 91.5273C104.801 93.5746 103.867 95.9435 103.47 98.4657L107.156 97.8903C108.661 98.3426 110.226 98.4442 111.734 98.1876C113.243 97.931 114.657 97.3227 115.872 96.4079C117.932 94.8296 119.344 92.4062 120.919 90.2676Z" fill="#CA9AFE"/>
<path d="M155.099 68.4505C153.986 68.0312 152.853 67.681 151.707 67.4019L155.009 67.1071C154.911 66.5601 154.7 66.035 154.391 65.568C154.082 65.101 153.682 64.7034 153.219 64.4029C152.1 63.7222 150.696 63.7375 149.557 64.2436C148.431 64.7943 147.493 65.6664 146.847 66.763C145.626 68.7152 145.075 71.062 145.279 73.4497C147.139 73.6051 149.036 73.6639 150.794 73.1412C152.581 72.61 154.226 71.3901 154.866 69.5923C154.994 69.2273 155.072 68.8432 155.099 68.4505Z" fill="#CA9AFE"/>
<path d="M137.216 103.693L141.839 105.706C143.48 105.146 145.011 104.318 146.376 103.252C141.421 102.965 137.958 97.6191 133.272 95.676C131.807 95.0813 130.25 94.828 128.716 94.9348C127.183 95.0417 125.712 95.5059 124.413 96.2932L120.683 96.6036C121.9 98.9245 123.574 100.974 125.591 102.61C127.607 104.246 129.918 105.431 132.365 106.082C134.713 106.678 137.128 106.762 139.452 106.33C138.214 104.967 137.216 103.693 137.216 103.693Z" fill="#CA9AFE"/>
<path d="M103.667 97.4377C102.472 97.2335 101.284 96.9716 100.103 96.6523C100.184 96.9767 100.264 97.2921 100.341 97.6023C101.387 97.8751 102.44 98.1035 103.5 98.2873C103.677 98.3181 103.857 98.3476 104.039 98.3757C106.003 98.6919 107.979 98.8589 109.951 98.8753C113.747 98.9135 117.498 98.4042 121.098 97.362C121.162 97.3457 121.222 97.3281 121.284 97.3092C122.27 97.0172 123.246 96.6839 124.201 96.3108C124.394 96.2369 124.589 96.159 124.781 96.0826C125.303 95.8666 125.82 95.6403 126.332 95.4039C128.194 94.5407 129.978 93.5201 131.665 92.352C134.552 90.354 137.15 87.9571 139.392 85.2228C139.552 85.0288 139.711 84.8348 139.864 84.6345C139.957 84.5195 140.048 84.4019 140.14 84.2843C142.543 81.1642 144.471 77.6712 145.864 73.9161C145.915 73.7776 145.964 73.6406 146.013 73.5036C146.128 73.1781 146.24 72.8514 146.347 72.5235C146.367 72.4684 146.374 72.4084 146.367 72.3485C146.36 72.2886 146.339 72.2305 146.306 72.179C146.273 72.1276 146.229 72.0843 146.178 72.0527C146.127 72.0211 146.07 72.0021 146.012 71.9974C145.909 71.9723 145.803 71.9861 145.714 72.0364C145.624 72.0867 145.558 72.1701 145.526 72.2709C145.439 72.5355 145.35 72.8015 145.254 73.0613C145.147 73.3787 145.03 73.6912 144.908 74C142.307 80.7625 137.95 86.5705 132.294 90.8142C128.801 93.4169 124.871 95.3595 120.67 96.5588L120.669 96.5562C118.141 97.2836 115.534 97.7407 112.887 97.9206C112.358 97.9557 111.829 97.9799 111.299 97.9933C109.921 98.0308 108.538 97.9927 107.155 97.8791C105.989 97.7872 104.827 97.6401 103.667 97.4377Z" fill="#3F3D56"/>
<path d="M96.3121 92.6526C98.7835 95.682 100.576 99.222 101.548 102.996C101.69 103.546 102.5 103.35 102.358 102.801C101.339 98.8756 99.4661 95.1957 96.8872 92.0495C96.5274 91.61 95.9536 92.2146 96.3121 92.6526Z" fill="#CCCCCC"/>
<path d="M73.499 96.2249C75.3337 91.7444 76.4727 87.143 76.8804 82.5637C77.2909 78.0053 76.9869 73.5141 75.9777 69.2231C74.9524 64.8688 73.1821 60.7767 70.7253 57.0819C65.7083 49.5639 58.111 43.8865 48.8729 40.7517C48.3096 40.5618 47.7408 40.3822 47.1666 40.213C46.5259 40.0232 46.138 40.999 46.7744 41.1875C55.9636 43.9459 63.6385 49.2261 68.8492 56.3748C72.7882 61.8605 75.1588 68.2724 75.785 75.1346C76.4112 81.9968 75.2771 89.1331 72.4667 96.0139C72.2092 96.641 73.2415 96.8519 73.499 96.2249L73.499 96.2249Z" fill="#A37FFF"/>
<path d="M49.6635 41.2456C49.1872 41.3373 48.7095 41.4064 48.2326 41.4525C48.2266 41.4883 48.2213 41.5243 48.2152 41.56L49.6635 41.2456Z" fill="#A37FFF"/>
<path d="M44.2859 30.225C42.085 29.5113 39.0375 30.2958 37.6029 32.2898C36.641 33.6268 36.5278 35.2842 37.0568 36.6171C37.643 37.9337 38.6515 39.0209 39.9699 39.7577C42.3102 41.1535 45.2101 41.7483 48.2327 41.4525C48.6039 39.2523 48.8569 37.0123 48.3654 34.9491C47.8659 32.8524 46.4869 30.9386 44.2859 30.225Z" fill="#A37FFF"/>
<path d="M67.3262 31.3869C66.7516 28.5933 65.4868 26.0381 63.6186 23.8973C61.7505 21.7566 59.3236 20.0812 56.5051 18.9866C58.8035 24.0936 54.3034 30.542 54.4932 36.3064C54.5679 38.1018 55.0967 39.7978 56.0404 41.2688C56.9841 42.7397 58.3186 43.9479 59.9449 44.8037L62.2996 48.352C64.4062 45.8387 65.9464 43.0207 66.8142 40.0919C67.682 37.1631 67.8566 34.1932 67.3262 31.3869Z" fill="#A37FFF"/>
<path d="M85.8235 39.4612C84.994 45.3181 77.943 49.5303 75.0565 55.1072C74.17 56.8509 73.7044 58.6951 73.6939 60.5032C73.6835 62.3112 74.1286 64.0368 74.9962 65.552L75.0345 69.9471C78.0804 68.4728 80.8265 66.4531 83.0776 64.0315C85.3288 61.6098 87.0297 58.8457 88.0597 55.9355C89.0896 53.0254 89.4232 50.0406 89.0367 47.1933C88.6502 44.346 87.5532 41.7061 85.8235 39.4612Z" fill="#A37FFF"/>
<path d="M62.2695 63.9218C60.7791 66.7218 59.9482 69.6941 59.8358 72.6273C59.7234 75.5606 60.3323 78.3829 61.6193 80.8937C62.9062 83.4045 64.8396 85.542 67.2821 87.1545C69.7245 88.767 72.616 89.8149 75.7511 90.2236L75.3754 85.8867C76.0865 84.0993 76.362 82.2495 76.1817 80.4743C76.0014 78.6992 75.3698 77.0441 74.3338 75.6319C70.9694 71.1326 63.6365 69.4 62.2695 63.9218Z" fill="#A37FFF"/>
<path d="M92.7275 33.9413L95.9811 28.0202C94.0788 25.4959 91.445 23.5267 88.3083 22.2838C90.556 27.4146 86.0016 33.8366 86.1373 39.6095C86.1951 41.4077 86.7074 43.1098 87.6362 44.5897C88.565 46.0696 89.8865 47.2894 91.5027 48.1587L93.8212 51.7292C95.9485 49.2289 97.5131 46.4191 98.4071 43.4933C99.3011 40.5675 99.5032 37.5954 98.9996 34.7816C98.6992 33.208 98.1723 31.7051 97.4313 30.3085C95.2177 32.1941 92.7275 33.9413 92.7275 33.9413Z" fill="#CA9AFE"/>
<path d="M98.402 73.2566C96.6133 74.6859 94.9922 75.8233 94.9922 75.8233L96.9997 72.1698C95.407 70.837 94.126 69.325 93.646 67.3178C92.1314 70.1099 91.2738 73.0795 91.1342 76.0155C90.9946 78.9515 91.5763 81.7819 92.8382 84.3055C94.1001 86.8291 96.011 88.984 98.4352 90.6171C100.859 92.2501 103.737 93.3212 106.865 93.7543L106.53 89.4093C107.257 87.6251 107.549 85.7751 107.386 83.9964C107.222 82.2177 106.607 80.5558 105.585 79.1339C103.819 76.7225 100.923 75.0873 98.402 73.2566Z" fill="#CA9AFE"/>
<path d="M74.5898 33.1834C73.9458 34.5038 73.3865 35.8465 72.9151 37.2042L72.8924 33.3081C72.1949 33.4312 71.5129 33.6874 70.8936 34.0588C70.2743 34.4303 69.7327 34.9082 69.3063 35.4594C68.3331 36.7907 68.2045 38.4492 68.7204 39.7878C69.2936 41.1105 70.2906 42.2067 71.6005 42.9545C73.9247 44.3697 76.8154 44.9873 79.8368 44.7142C80.2281 42.5141 80.5016 40.2732 80.03 38.2038C79.5508 36.1007 78.1914 34.1741 75.9999 33.4429C75.5548 33.2969 75.0804 33.2096 74.5898 33.1834Z" fill="#CA9AFE"/>
<path d="M116.986 53.8212L120.002 48.3322C119.472 46.4013 118.593 44.6041 117.397 43.0064C116.514 48.8642 109.433 53.0279 106.498 58.5897C105.597 60.3288 105.114 62.1717 105.087 63.9819C105.06 65.7921 105.488 67.5232 106.341 69.0468L106.338 73.4475C109.382 71.9787 112.133 69.9728 114.401 67.5681C116.67 65.1633 118.401 62.4169 119.477 59.5179C120.473 56.7362 120.834 53.8826 120.535 51.1428C118.692 52.624 116.986 53.8212 116.986 53.8212Z" fill="#CA9AFE"/>
<path d="M105.594 93.536C105.211 94.951 104.757 96.3582 104.232 97.7576C104.648 97.6567 105.052 97.5583 105.45 97.4634C105.903 96.2231 106.301 94.976 106.644 93.7222C106.701 93.5125 106.757 93.2999 106.812 93.0845C107.416 90.7594 107.834 88.4227 108.062 86.0933C108.51 81.6096 108.265 77.185 107.335 72.9474C107.321 72.8721 107.305 72.8014 107.288 72.7279C107.025 71.5671 106.709 70.4199 106.341 69.2965C106.268 69.0691 106.191 68.8406 106.115 68.615C105.899 68.0003 105.669 67.3927 105.425 66.7922C104.537 64.6042 103.443 62.5113 102.153 60.5338C99.9463 57.152 97.2084 54.1164 94.009 51.5048C93.7821 51.3194 93.5551 51.1339 93.3195 50.9565C93.1848 50.848 93.0468 50.7413 92.9087 50.6346C89.2414 47.8394 85.0559 45.6097 80.4844 44.0161C80.3158 43.9578 80.1488 43.9023 79.9817 43.8467C79.5849 43.7148 79.1862 43.5875 78.7856 43.4648C78.7185 43.442 78.6438 43.435 78.5677 43.4443C78.4917 43.4536 78.4165 43.479 78.3484 43.5184C78.2803 43.5578 78.2213 43.6101 78.1762 43.6708C78.1312 43.7316 78.1014 43.7991 78.0893 43.8678C78.0469 43.9896 78.0531 44.1146 78.1069 44.2197C78.1607 44.3247 78.2583 44.4026 78.3817 44.4388C78.705 44.5376 79.0299 44.6392 79.3461 44.7489C79.7336 44.8713 80.114 45.0047 80.4891 45.1444C88.7119 48.1233 95.5504 53.1899 100.287 59.8122C103.189 63.9022 105.216 68.5185 106.28 73.4636L106.277 73.4653C106.925 76.4414 107.224 79.5149 107.172 82.6391C107.16 83.2626 107.135 83.8874 107.096 84.5134C106.998 86.1409 106.804 87.7754 106.516 89.4103C106.278 90.7886 105.97 92.1639 105.594 93.536Z" fill="#3F3D56"/>
<path d="M98.807 102.29C102.874 99.3292 107.51 97.1635 112.354 95.9624C113.061 95.7868 112.899 94.833 112.195 95.0081C107.155 96.2668 102.335 98.5296 98.1099 101.619C97.5197 102.05 98.2189 102.72 98.807 102.29Z" fill="#CCCCCC"/>
<path d="M76.6671 71.3197C81.344 70.0675 85.6958 68.1883 89.5875 65.7405C93.464 63.3076 96.8546 60.3467 99.659 56.9456C102.504 53.4935 104.689 49.6071 106.143 45.4148C109.089 36.8703 109.008 27.3863 105.911 18.1357C105.721 17.5724 105.519 17.011 105.306 16.4515C105.07 15.8266 104.058 16.1087 104.293 16.7293C107.661 25.7132 108.105 35.0184 105.57 43.4936C103.588 49.9497 99.9198 55.7183 94.8372 60.3711C89.7546 65.0239 83.388 68.4416 76.2101 70.3703C75.555 70.545 76.0122 71.4944 76.6671 71.3197L76.6671 71.3197Z" fill="#A37FFF"/>
<path d="M105.996 19.0639C105.635 18.7402 105.291 18.4019 104.965 18.0502C104.933 18.0671 104.901 18.0846 104.869 18.1014L105.996 19.0639Z" fill="#A37FFF"/>
<path d="M111.512 8.11186C110.747 5.92802 108.278 3.97741 105.823 4.04279C104.176 4.08661 102.788 4.99982 102.048 6.22783C101.355 7.49155 101.1 8.95235 101.312 10.4478C101.618 13.1555 102.9 15.8237 104.965 18.0503C106.941 17.0138 108.877 15.859 110.222 14.2188C111.588 12.5519 112.276 10.2957 111.512 8.11186Z" fill="#A37FFF"/>
<path d="M124.536 27.1535C126.412 25.005 127.68 22.4513 128.252 19.6684C128.825 16.8855 128.69 13.9396 127.854 11.0337C125.181 15.9548 117.324 16.2769 112.851 19.9178C111.467 21.0641 110.438 22.5118 109.838 24.1534C109.239 25.7951 109.085 27.5886 109.388 29.4012L107.99 33.4234C111.266 33.5786 114.441 33.0984 117.297 32.016C120.154 30.9336 122.623 29.2747 124.536 27.1535Z" fill="#A37FFF"/>
<path d="M129.308 46.7642C124.144 49.6497 116.523 46.5878 110.336 47.6666C108.412 48.0167 106.662 48.7625 105.217 49.8488C103.771 50.9351 102.667 52.3341 101.987 53.9419L98.5117 56.6332C101.529 58.1649 104.799 59.1278 108.089 59.4535C111.38 59.7792 114.609 59.4596 117.549 58.5175C120.489 57.5754 123.067 56.0339 125.099 54.0026C127.131 51.9712 128.568 49.4999 129.308 46.7642Z" fill="#A37FFF"/>
<path d="M95.5794 42.8255C92.4485 43.3344 89.5798 44.4725 87.1771 46.1588C84.7744 47.8452 82.8967 50.0385 81.6775 52.5828C80.4582 55.1271 79.9274 57.96 80.1226 60.8802C80.3178 63.8004 81.2344 66.7362 82.8071 69.4789L86.0314 66.5544C87.8845 66.0382 89.5236 65.1377 90.8274 63.9194C92.1311 62.7012 93.066 61.1966 93.5628 59.517C95.1071 54.1154 92.0468 47.23 95.5794 42.8255Z" fill="#A37FFF"/>
<path d="M137.881 48.9174L144.563 47.9222C145.421 44.88 145.394 41.5915 144.484 38.3425C141.761 43.2377 133.892 43.5006 129.38 47.1036C127.983 48.2382 126.939 49.6764 126.323 51.3116C125.708 52.9468 125.537 54.7371 125.823 56.5497L124.385 60.5566C127.663 60.7361 130.847 60.2803 133.717 59.2206C136.587 58.1609 139.075 56.5224 141.009 54.4181C142.08 53.2263 142.957 51.8971 143.62 50.4618C140.779 49.8416 137.881 48.9174 137.881 48.9174Z" fill="#CA9AFE"/>
<path d="M110.024 77.2353C107.804 76.677 105.917 76.0753 105.917 76.0753L110.04 75.4613C110.137 73.3868 110.565 71.4518 111.872 69.8546C108.733 70.3394 105.85 71.4546 103.428 73.121C101.007 74.7873 99.1066 76.9639 97.8619 79.496C96.6173 82.0282 96.059 84.8537 96.2269 87.7719C96.3947 90.69 97.2846 93.6291 98.8331 96.3804L102.089 93.4834C103.949 92.9817 105.598 92.0946 106.915 90.8876C108.232 89.6806 109.182 88.1847 109.695 86.5108C110.545 83.6453 110.093 80.3503 110.024 77.2353Z" fill="#CA9AFE"/>
<path d="M127.503 34.0224C126.063 34.3091 124.655 34.6769 123.289 35.1236L126.376 32.7469C125.856 32.2662 125.239 31.8784 124.569 31.6105C123.898 31.3425 123.19 31.2007 122.493 31.195C120.844 31.2264 119.447 32.1281 118.693 33.3491C117.988 34.6062 117.719 36.0633 117.917 37.5585C118.197 40.2652 119.456 42.9399 121.502 45.1793C123.49 44.1588 125.439 43.0199 126.801 41.3917C128.185 39.737 128.895 37.4887 128.151 35.3018C127.997 34.8591 127.78 34.4287 127.503 34.0224Z" fill="#CA9AFE"/>
<path d="M136.744 80.2607L142.939 79.3382C144.155 77.7474 145.053 75.9598 145.601 74.0408C140.404 76.8842 132.803 73.7689 126.599 74.8C124.67 75.1353 122.911 75.8672 121.453 76.9414C119.996 78.0155 118.878 79.4045 118.181 81.0054L114.677 83.6674C117.689 85.2011 120.951 86.1763 124.238 86.5258C127.525 86.8753 130.759 86.5908 133.718 85.692C136.535 84.8007 139.025 83.3601 141.024 81.4638C138.73 80.8938 136.744 80.2607 136.744 80.2607Z" fill="#CA9AFE"/>
<path d="M98.2374 95.2368C96.8796 95.7889 95.4847 96.2794 94.0526 96.7082C94.3849 96.9784 94.7082 97.2409 95.0246 97.5002C96.286 97.1099 97.5194 96.6715 98.7248 96.1851C98.9265 96.1038 99.1295 96.0196 99.3339 95.9326C101.55 95.0059 103.663 93.9238 105.655 92.6954C109.495 90.3372 112.868 87.4637 115.678 84.1578C115.73 84.1012 115.776 84.0459 115.824 83.9877C116.589 83.0756 117.311 82.1295 117.982 81.1564C118.119 80.961 118.254 80.7612 118.388 80.5642C118.746 80.0199 119.091 79.4691 119.421 78.912C120.625 76.8803 121.628 74.7422 122.421 72.5183C123.777 68.7148 124.536 64.6978 124.677 60.5704C124.688 60.2775 124.698 59.9845 124.696 59.6896C124.701 59.5168 124.703 59.3423 124.704 59.1678C124.708 54.5567 123.949 49.8755 122.45 45.2722C122.394 45.1027 122.337 44.9361 122.28 44.7695C122.145 44.3739 122.005 43.9795 121.86 43.5864C121.838 43.5191 121.798 43.4554 121.745 43.4005C121.691 43.3456 121.626 43.3012 121.553 43.2708C121.48 43.2405 121.403 43.2251 121.327 43.2261C121.252 43.227 121.18 43.2441 121.118 43.2761C120.995 43.316 120.9 43.3967 120.849 43.5031C120.798 43.6095 120.795 43.7344 120.841 43.8545C120.958 44.1716 121.073 44.4917 121.178 44.8098C121.315 45.1924 121.439 45.5758 121.555 45.959C124.162 54.3071 124.269 62.8174 121.866 70.5962C120.368 75.3824 117.92 79.7903 114.629 83.6312L114.626 83.6296C112.649 85.9468 110.384 88.0461 107.866 89.8955C107.362 90.2638 106.85 90.6219 106.328 90.9699C104.973 91.8771 103.555 92.7125 102.079 93.4728C100.838 94.1176 99.5574 94.7056 98.2374 95.2368Z" fill="#3F3D56"/>
<path d="M87.1609 95.1349C91.9797 96.5789 96.5104 98.958 100.399 102.086C100.966 102.542 101.628 101.836 101.062 101.382C97.0093 98.1327 92.2898 95.6657 87.2729 94.1738C86.5726 93.9649 86.4631 94.9268 87.1609 95.1349Z" fill="#CCCCCC"/>
<path d="M76.6671 71.3197C81.344 70.0675 85.6958 68.1883 89.5875 65.7405C93.464 63.3076 96.8546 60.3467 99.659 56.9456C102.504 53.4935 104.689 49.6071 106.143 45.4148C109.089 36.8703 109.008 27.3863 105.911 18.1357C105.721 17.5724 105.519 17.011 105.306 16.4515C105.07 15.8266 104.058 16.1087 104.293 16.7293C107.661 25.7132 108.105 35.0184 105.57 43.4936C103.588 49.9497 99.9198 55.7183 94.8372 60.3711C89.7546 65.0239 83.388 68.4416 76.2101 70.3703C75.555 70.545 76.0122 71.4944 76.6671 71.3197L76.6671 71.3197Z" fill="#A37FFF"/>
<path d="M105.996 19.0639C105.635 18.7402 105.291 18.4019 104.965 18.0502C104.933 18.0671 104.901 18.0846 104.869 18.1014L105.996 19.0639Z" fill="#A37FFF"/>
<path d="M111.512 8.11186C110.747 5.92802 108.278 3.97741 105.823 4.04279C104.176 4.08661 102.788 4.99982 102.048 6.22783C101.355 7.49155 101.1 8.95235 101.312 10.4478C101.618 13.1555 102.9 15.8237 104.965 18.0503C106.941 17.0138 108.877 15.859 110.222 14.2188C111.588 12.5519 112.276 10.2957 111.512 8.11186Z" fill="#A37FFF"/>
<path d="M124.536 27.1535C126.412 25.005 127.68 22.4513 128.252 19.6684C128.825 16.8855 128.69 13.9396 127.854 11.0337C125.181 15.9548 117.324 16.2769 112.851 19.9178C111.467 21.0641 110.438 22.5118 109.838 24.1534C109.239 25.7951 109.085 27.5886 109.388 29.4012L107.99 33.4234C111.266 33.5786 114.441 33.0984 117.297 32.016C120.154 30.9336 122.623 29.2747 124.536 27.1535Z" fill="#A37FFF"/>
<path d="M129.308 46.7642C124.144 49.6497 116.523 46.5878 110.336 47.6666C108.412 48.0167 106.662 48.7625 105.217 49.8488C103.771 50.9351 102.667 52.3341 101.987 53.9419L98.5117 56.6332C101.529 58.1649 104.799 59.1278 108.089 59.4535C111.38 59.7792 114.609 59.4596 117.549 58.5175C120.489 57.5754 123.067 56.0339 125.099 54.0026C127.131 51.9712 128.568 49.4999 129.308 46.7642Z" fill="#A37FFF"/>
<path d="M95.5794 42.8255C92.4485 43.3344 89.5798 44.4725 87.1771 46.1588C84.7744 47.8452 82.8967 50.0385 81.6775 52.5828C80.4582 55.1271 79.9274 57.96 80.1226 60.8802C80.3178 63.8004 81.2344 66.7362 82.8071 69.4789L86.0314 66.5544C87.8845 66.0382 89.5236 65.1377 90.8274 63.9194C92.1311 62.7012 93.066 61.1966 93.5628 59.517C95.1071 54.1154 92.0468 47.23 95.5794 42.8255Z" fill="#A37FFF"/>
<path d="M137.881 48.9174L144.563 47.9222C145.421 44.88 145.394 41.5915 144.484 38.3425C141.761 43.2377 133.892 43.5006 129.38 47.1036C127.983 48.2382 126.939 49.6764 126.323 51.3116C125.708 52.9468 125.537 54.7371 125.823 56.5497L124.385 60.5566C127.663 60.7361 130.847 60.2803 133.717 59.2206C136.587 58.1609 139.075 56.5224 141.009 54.4181C142.08 53.2263 142.957 51.8971 143.62 50.4618C140.779 49.8416 137.881 48.9174 137.881 48.9174Z" fill="#CA9AFE"/>
<path d="M110.024 77.2353C107.804 76.677 105.917 76.0753 105.917 76.0753L110.04 75.4613C110.137 73.3868 110.565 71.4518 111.872 69.8546C108.733 70.3394 105.85 71.4546 103.428 73.121C101.007 74.7873 99.1066 76.9639 97.8619 79.496C96.6173 82.0282 96.059 84.8537 96.2269 87.7719C96.3947 90.69 97.2846 93.6291 98.8331 96.3804L102.089 93.4834C103.949 92.9817 105.598 92.0946 106.915 90.8876C108.232 89.6806 109.182 88.1847 109.695 86.5108C110.545 83.6453 110.093 80.3503 110.024 77.2353Z" fill="#CA9AFE"/>
<path d="M127.503 34.0224C126.063 34.3091 124.655 34.6769 123.289 35.1236L126.376 32.7469C125.856 32.2662 125.239 31.8784 124.569 31.6105C123.898 31.3425 123.19 31.2007 122.493 31.195C120.844 31.2264 119.447 32.1281 118.693 33.3491C117.988 34.6062 117.719 36.0633 117.917 37.5585C118.197 40.2652 119.456 42.9399 121.502 45.1793C123.49 44.1588 125.439 43.0199 126.801 41.3917C128.185 39.737 128.895 37.4887 128.151 35.3018C127.997 34.8591 127.78 34.4287 127.503 34.0224Z" fill="#CA9AFE"/>
<path d="M136.744 80.2607L142.939 79.3382C144.155 77.7474 145.053 75.9598 145.601 74.0408C140.404 76.8842 132.803 73.7689 126.599 74.8C124.67 75.1353 122.911 75.8672 121.453 76.9414C119.996 78.0155 118.878 79.4045 118.181 81.0054L114.677 83.6674C117.689 85.2011 120.951 86.1763 124.238 86.5258C127.525 86.8753 130.759 86.5908 133.718 85.692C136.535 84.8007 139.025 83.3601 141.024 81.4638C138.73 80.8938 136.744 80.2607 136.744 80.2607Z" fill="#CA9AFE"/>
<path d="M98.2374 95.2368C96.8796 95.7889 95.4847 96.2794 94.0526 96.7082C94.3849 96.9784 94.7082 97.2409 95.0246 97.5002C96.286 97.1099 97.5194 96.6715 98.7248 96.1851C98.9265 96.1038 99.1295 96.0196 99.3339 95.9326C101.55 95.0059 103.663 93.9238 105.655 92.6954C109.495 90.3372 112.868 87.4637 115.678 84.1578C115.73 84.1012 115.776 84.0459 115.824 83.9877C116.589 83.0756 117.311 82.1295 117.982 81.1564C118.119 80.961 118.254 80.7612 118.388 80.5642C118.746 80.0199 119.091 79.4691 119.421 78.912C120.625 76.8803 121.628 74.7422 122.421 72.5183C123.777 68.7148 124.536 64.6978 124.677 60.5704C124.688 60.2775 124.698 59.9845 124.696 59.6896C124.701 59.5168 124.703 59.3423 124.704 59.1678C124.708 54.5567 123.949 49.8755 122.45 45.2722C122.394 45.1027 122.337 44.9361 122.28 44.7695C122.145 44.3739 122.005 43.9795 121.86 43.5864C121.838 43.5191 121.798 43.4554 121.745 43.4005C121.691 43.3456 121.626 43.3012 121.553 43.2708C121.48 43.2405 121.403 43.2251 121.327 43.2261C121.252 43.227 121.18 43.2441 121.118 43.2761C120.995 43.316 120.9 43.3967 120.849 43.5031C120.798 43.6095 120.795 43.7344 120.841 43.8545C120.958 44.1716 121.073 44.4917 121.178 44.8098C121.315 45.1924 121.439 45.5758 121.555 45.959C124.162 54.3071 124.269 62.8174 121.866 70.5962C120.368 75.3824 117.92 79.7903 114.629 83.6312L114.626 83.6296C112.649 85.9468 110.384 88.0461 107.866 89.8955C107.362 90.2638 106.85 90.6219 106.328 90.9699C104.973 91.8771 103.555 92.7125 102.079 93.4728C100.838 94.1176 99.5574 94.7056 98.2374 95.2368Z" fill="#3F3D56"/>
<path d="M87.1609 95.1349C91.9797 96.5789 96.5104 98.958 100.399 102.086C100.966 102.542 101.628 101.836 101.062 101.382C97.0093 98.1327 92.2898 95.6657 87.2729 94.1738C86.5726 93.9649 86.4631 94.9268 87.1609 95.1349Z" fill="#CCCCCC"/>
<g filter="url(#filter0_d_37_4216)">
<path d="M35.64 124.12C25.56 124.12 17.7733 121.56 12.28 116.44C6.84 111.32 4.12 103.133 4.12 91.88C4.12 70.3867 14.5733 59.64 35.48 59.64C40.5467 59.64 45.24 60.2533 49.56 61.48C53.9333 62.7067 57.1867 64.0667 59.32 65.56V85.56H40.12V79.8C40.12 77.7733 39.6667 76.28 38.76 75.32C37.8533 74.36 36.4933 73.88 34.68 73.88C32.8667 73.88 31.5067 74.36 30.6 75.32C29.6933 76.28 29.24 77.7733 29.24 79.8V103.96C29.24 105.987 29.6933 107.48 30.6 108.44C31.5067 109.4 32.8667 109.88 34.68 109.88C36.4933 109.88 37.8533 109.4 38.76 108.44C39.6667 107.48 40.12 105.987 40.12 103.96V97.48H59.32V118.2C57.1333 119.693 53.88 121.053 49.56 122.28C45.2933 123.507 40.6533 124.12 35.64 124.12ZM130.654 103H126.654V119C124.308 120.333 120.868 121.533 116.334 122.6C111.854 123.613 107.001 124.12 101.774 124.12C91.801 124.12 83.9877 121.507 78.3344 116.28C72.681 111 69.8544 102.867 69.8544 91.88C69.8544 80.6267 72.6544 72.44 78.2544 67.32C83.9077 62.2 91.961 59.64 102.414 59.64C107.481 59.64 112.228 60.1733 116.654 61.24C121.081 62.3067 124.414 63.5067 126.654 64.84V83.96H106.654V80.2C106.654 77.96 106.174 76.36 105.214 75.4C104.308 74.3867 102.841 73.88 100.814 73.88C98.7877 73.88 97.2944 74.3867 96.3344 75.4C95.4277 76.36 94.9744 77.96 94.9744 80.2V103.56C94.9744 105.8 95.4277 107.427 96.3344 108.44C97.2944 109.4 98.7877 109.88 100.814 109.88C102.841 109.88 104.308 109.4 105.214 108.44C106.174 107.427 106.654 105.8 106.654 103.56V103H102.334V91.08H130.654V103Z" fill="#F0EAF8"/>
<path d="M12.28 116.44L11.5946 117.168L11.5982 117.172L12.28 116.44ZM49.56 61.48L49.2868 62.442L49.2899 62.4428L49.56 61.48ZM59.32 65.56H60.32V65.0393L59.8935 64.7408L59.32 65.56ZM59.32 85.56V86.56H60.32V85.56H59.32ZM40.12 85.56H39.12V86.56H40.12V85.56ZM38.76 75.32L39.487 74.6334V74.6334L38.76 75.32ZM30.6 75.32L31.327 76.0066L30.6 75.32ZM30.6 108.44L31.327 107.753L30.6 108.44ZM38.76 108.44L39.487 109.127L38.76 108.44ZM40.12 97.48V96.48H39.12V97.48H40.12ZM59.32 97.48H60.32V96.48H59.32V97.48ZM59.32 118.2L59.884 119.026L60.32 118.728V118.2H59.32ZM49.56 122.28L49.2868 121.318L49.2837 121.319L49.56 122.28ZM35.64 123.12C25.7247 123.12 18.2142 120.604 12.9618 115.708L11.5982 117.172C17.3325 122.516 25.3953 125.12 35.64 125.12V123.12ZM12.9654 115.712C7.80886 110.859 5.12 102.997 5.12 91.88H3.12C3.12 103.27 5.87114 111.781 11.5946 117.168L12.9654 115.712ZM5.12 91.88C5.12 81.2806 7.69772 73.5161 12.6768 68.3973C17.6509 63.2836 25.1879 60.64 35.48 60.64V58.64C24.8654 58.64 16.7224 61.3698 11.2432 67.0027C5.76895 72.6306 3.12 80.986 3.12 91.88H5.12ZM35.48 60.64C40.4659 60.64 45.0662 61.2435 49.2868 62.442L49.8332 60.518C45.4138 59.2631 40.6274 58.64 35.48 58.64V60.64ZM49.2899 62.4428C53.623 63.6582 56.7497 64.9814 58.7465 66.3792L59.8935 64.7408C57.6236 63.1519 54.2437 61.7551 49.8301 60.5172L49.2899 62.4428ZM58.32 65.56V85.56H60.32V65.56H58.32ZM59.32 84.56H40.12V86.56H59.32V84.56ZM41.12 85.56V79.8H39.12V85.56H41.12ZM41.12 79.8C41.12 77.6506 40.6427 75.857 39.487 74.6334L38.033 76.0066C38.6907 76.703 39.12 77.8961 39.12 79.8H41.12ZM39.487 74.6334C38.3293 73.4076 36.6625 72.88 34.68 72.88V74.88C36.3241 74.88 37.3774 75.3124 38.033 76.0066L39.487 74.6334ZM34.68 72.88C32.6975 72.88 31.0307 73.4076 29.873 74.6334L31.327 76.0066C31.9826 75.3124 33.0359 74.88 34.68 74.88V72.88ZM29.873 74.6334C28.7173 75.857 28.24 77.6506 28.24 79.8H30.24C30.24 77.8961 30.6693 76.703 31.327 76.0066L29.873 74.6334ZM28.24 79.8V103.96H30.24V79.8H28.24ZM28.24 103.96C28.24 106.109 28.7173 107.903 29.873 109.127L31.327 107.753C30.6693 107.057 30.24 105.864 30.24 103.96H28.24ZM29.873 109.127C31.0307 110.352 32.6975 110.88 34.68 110.88V108.88C33.0359 108.88 31.9826 108.448 31.327 107.753L29.873 109.127ZM34.68 110.88C36.6625 110.88 38.3293 110.352 39.487 109.127L38.033 107.753C37.3774 108.448 36.3241 108.88 34.68 108.88V110.88ZM39.487 109.127C40.6427 107.903 41.12 106.109 41.12 103.96H39.12C39.12 105.864 38.6907 107.057 38.033 107.753L39.487 109.127ZM41.12 103.96V97.48H39.12V103.96H41.12ZM40.12 98.48H59.32V96.48H40.12V98.48ZM58.32 97.48V118.2H60.32V97.48H58.32ZM58.756 117.374C56.6991 118.779 53.5648 120.103 49.2868 121.318L49.8332 123.242C54.1952 122.003 57.5676 120.608 59.884 119.026L58.756 117.374ZM49.2837 121.319C45.1176 122.517 40.5717 123.12 35.64 123.12V125.12C40.7349 125.12 45.4691 124.497 49.8363 123.241L49.2837 121.319ZM130.654 103V104H131.654V103H130.654ZM126.654 103V102H125.654V103H126.654ZM126.654 119L127.148 119.869L127.654 119.582V119H126.654ZM116.334 122.6L116.555 123.575L116.563 123.573L116.334 122.6ZM78.3344 116.28L77.6518 117.011L77.6555 117.014L78.3344 116.28ZM78.2544 67.32L77.5831 66.5788L77.5796 66.582L78.2544 67.32ZM116.654 61.24L116.42 62.2122L116.654 61.24ZM126.654 64.84H127.654V64.2715L127.166 63.9807L126.654 64.84ZM126.654 83.96V84.96H127.654V83.96H126.654ZM106.654 83.96H105.654V84.96H106.654V83.96ZM105.214 75.4L104.469 76.0668L104.488 76.0875L104.507 76.1071L105.214 75.4ZM96.3344 75.4L95.6084 74.7123L95.6074 74.7134L96.3344 75.4ZM96.3344 108.44L95.5891 109.107L95.6076 109.127L95.6273 109.147L96.3344 108.44ZM105.214 108.44L104.488 107.752L104.487 107.753L105.214 108.44ZM106.654 103H107.654V102H106.654V103ZM102.334 103H101.334V104H102.334V103ZM102.334 91.08V90.08H101.334V91.08H102.334ZM130.654 91.08H131.654V90.08H130.654V91.08ZM130.654 102H126.654V104H130.654V102ZM125.654 103V119H127.654V103H125.654ZM126.16 118.131C123.935 119.395 120.603 120.568 116.105 121.627L116.563 123.573C121.133 122.498 124.68 121.272 127.148 119.869L126.16 118.131ZM116.114 121.625C111.715 122.62 106.937 123.12 101.774 123.12V125.12C107.065 125.12 111.993 124.607 116.555 123.575L116.114 121.625ZM101.774 123.12C91.976 123.12 84.4323 120.556 79.0132 115.546L77.6555 117.014C83.5431 122.458 91.626 125.12 101.774 125.12V123.12ZM79.0169 115.549C73.6391 110.526 70.8544 102.708 70.8544 91.88H68.8544C68.8544 103.025 71.723 111.474 77.6518 117.011L79.0169 115.549ZM70.8544 91.88C70.8544 80.7709 73.6193 72.9128 78.9291 68.058L77.5796 66.582C71.6895 71.9672 68.8544 80.4825 68.8544 91.88H70.8544ZM78.9257 68.0612C84.3363 63.161 92.1165 60.64 102.414 60.64V58.64C91.8056 58.64 83.4791 61.239 77.5831 66.5788L78.9257 68.0612ZM102.414 60.64C107.411 60.64 112.078 61.1659 116.42 62.2122L116.889 60.2678C112.377 59.1807 107.551 58.64 102.414 58.64V60.64ZM116.42 62.2122C120.81 63.2701 124.03 64.4418 126.143 65.6993L127.166 63.9807C124.798 62.5715 121.352 61.3432 116.889 60.2678L116.42 62.2122ZM125.654 64.84V83.96H127.654V64.84H125.654ZM126.654 82.96H106.654V84.96H126.654V82.96ZM107.654 83.96V80.2H105.654V83.96H107.654ZM107.654 80.2C107.654 77.8585 107.16 75.931 105.921 74.6929L104.507 76.1071C105.189 76.789 105.654 78.0615 105.654 80.2H107.654ZM105.96 74.7332C104.786 73.4218 102.985 72.88 100.814 72.88V74.88C102.697 74.88 103.829 75.3516 104.469 76.0668L105.96 74.7332ZM100.814 72.88C98.6384 72.88 96.8289 73.424 95.6084 74.7123L97.0603 76.0877C97.7598 75.3494 98.937 74.88 100.814 74.88V72.88ZM95.6074 74.7134C94.4377 75.9518 93.9744 77.8701 93.9744 80.2H95.9744C95.9744 78.0499 96.4177 76.7682 97.0614 76.0866L95.6074 74.7134ZM93.9744 80.2V103.56H95.9744V80.2H93.9744ZM93.9744 103.56C93.9744 105.897 94.4407 107.823 95.5891 109.107L97.0796 107.773C96.4147 107.03 95.9744 105.703 95.9744 103.56H93.9744ZM95.6273 109.147C96.8499 110.37 98.6519 110.88 100.814 110.88V108.88C98.9235 108.88 97.7389 108.43 97.0415 107.733L95.6273 109.147ZM100.814 110.88C102.971 110.88 104.765 110.372 105.941 109.127L104.487 107.753C103.85 108.428 102.711 108.88 100.814 108.88V110.88ZM105.94 109.128C107.157 107.844 107.654 105.908 107.654 103.56H105.654C105.654 105.692 105.192 107.01 104.488 107.752L105.94 109.128ZM107.654 103.56V103H105.654V103.56H107.654ZM106.654 102H102.334V104H106.654V102ZM103.334 103V91.08H101.334V103H103.334ZM102.334 92.08H130.654V90.08H102.334V92.08ZM129.654 91.08V103H131.654V91.08H129.654Z" fill="#A37FFF"/>
</g>
<defs>
<filter id="filter0_d_37_4216" x="0.119995" y="59.64" width="134.534" height="72.48" filterUnits="userSpaceOnUse" color-interpolation-filters="sRGB">
<feFlood flood-opacity="0" result="BackgroundImageFix"/>
<feColorMatrix in="SourceAlpha" type="matrix" values="0 0 0 0 0 0 0 0 0 0 0 0 0 0 0 0 0 0 127 0" result="hardAlpha"/>
<feOffset dy="4"/>
<feGaussianBlur stdDeviation="2"/>
<feComposite in2="hardAlpha" operator="out"/>
<feColorMatrix type="matrix" values="0 0 0 0 0.00812501 0 0 0 0 0.030014 0 0 0 0 0.1625 0 0 0 1 0"/>
<feBlend mode="normal" in2="BackgroundImageFix" result="effect1_dropShadow_37_4216"/>
<feBlend mode="normal" in="SourceGraphic" in2="effect1_dropShadow_37_4216" result="shape"/>
</filter>
</defs>
</svg>
